SplineFontDB: 1.0
FontName: Kinnari-BoldOblique
FullName: Kinnari Bold Oblique
FamilyName: Kinnari
Weight: Bold
Copyright: KinnariBoldItalic by Db Type : Fontographer 3.5
Version: 001.000
ItalicAngle: -12
UnderlinePosition: -70
UnderlineWidth: 25
Ascent: 800
Descent: 200
NeedsXUIDChange: 1
FSType: 0
PfmFamily: 17
TTFWeight: 700
TTFWidth: 5
Panose: 0 0 0 0 0 0 0 0 0 0
LineGap: 90
VLineGap: 0
ScriptLang: 3
 1 DFLT 1 dflt 
 1 thai 1 dflt 
 1 latn 1 dflt 
TableOrder: GSUB 1
	'liga'
LangName: 1033 "" "" "" "TheOmegaProject(v.beta1).YannisHaralambous,VirachSornlertlamvanichandAnutaraTantraporn: Omega3: 1999" "" "" "" "Norasi Bold is a trademark of NECTEC. Yannis Haralambous, Virach Sornlertlamvanich and Anutara Tantraporn." "" "Yannis Haralambous, Virach Sornlertlamvanich and Anutara Tantraporn" "This font was developed under the National Font Project at NECTEC as to be a free licensed font for Thai users and developers." "www.nectec.or.th/sll/" 
Encoding: custom
UnicodeInterp: none
DisplaySize: -72
AntiAlias: 1
FitToEm: 1
WinInfo: 184 8 10
BeginPrivate: 7
BlueValues 31 [-14 0 307 318 449 456 460 464]
BlueScale 9 0.0454545
StdHW 4 [30]
StdVW 4 [70]
StemSnapH 7 [30 42]
StemSnapV 7 [30 42]
ForceBold 4 true
EndPrivate
TeXData: 1 10485760 -562637 314572 157286 104857 330301 1048576 104857 783286 444596 497025 792723 393216 433062 380633 303038 157286 324010 404750 52429 2506097 1059062 262144
BeginChars: 259 225
StartChar: .notdef
Encoding: 0 -1 0
Width: 250
Flags: HW
HStem: 0 15<15 250> 370 15<0 235>
VStem: 0 15<0 370> 235 15<15 385>
Fore
94 370 m 1
 18 15 l 1
 238 15 l 1
 314 370 l 1
 94 370 l 1
250 0 m 1
 0 0 l 1
 82 385 l 1
 332 385 l 1
 250 0 l 1
EndSplineSet
EndChar
StartChar: exclam
Encoding: 33 33 2
Width: 217
Flags: HW
HStem: -9 90 436 20<214.5 248.5>
Fore
257 396 m 0
 257 396 l 0
 254 385 250 373 246 363 c 2
 151 115 l 1
 128 115 l 1
 166 364 l 1
 168 374 169 385 172 396 c 0
 179 421 198 456 231 456 c 0
 266 456 264 421 257 396 c 0
163 35 m 0
 156 9 130 -9 106 -9 c 0
 84 -9 66 11 72 35 c 0
 79 60 104 82 131 82 c 0
 156 82 170 60 163 35 c 0
EndSplineSet
EndChar
StartChar: quotedbl
Encoding: 34 34 3
Width: 265
Flags: HW
HStem: 441 20<187.5 208 305 325.5>
Fore
341 424 m 0
 282 289 l 1
 255 289 l 1
 269 424 l 1
 270 442 295 461 315 461 c 0
 336 461 350 443 341 424 c 0
224 424 m 1
 164 289 l 1
 137 289 l 1
 152 424 l 1
 153 443 177 461 198 461 c 0
 218 461 231 442 224 424 c 1
EndSplineSet
EndChar
StartChar: numbersign
Encoding: 35 35 4
Width: 325
Flags: HW
HStem: 0 20 141 52 263 52<96 153 228 277 352 400>
Fore
400 263 m 1
 331 263 l 1
 301 192 l 1
 365 192 l 1
 352 141 l 1
 280 141 l 1
 222 0 l 1
 168 0 l 1
 226 141 l 1
 155 141 l 1
 96 0 l 1
 42 0 l 1
 101 141 l 1
 33 141 l 1
 46 192 l 1
 122 192 l 1
 153 263 l 1
 82 263 l 1
 96 315 l 1
 174 315 l 1
 230 447 l 1
 284 447 l 1
 228 315 l 1
 298 315 l 1
 354 447 l 1
 407 447 l 1
 352 315 l 1
 414 315 l 1
 400 263 l 1
277 263 m 1
 207 263 l 1
 176 192 l 1
 247 192 l 1
 277 263 l 1
EndSplineSet
EndChar
StartChar: dollar
Encoding: 36 36 5
Width: 325
Flags: HW
HStem: -4 30
Fore
336 116 m 0
 336 116 l 0
 316 40 248 0 178 -7 c 1
 163 -65 l 1
 125 -65 l 1
 140 -8 l 1
 99 -7 61 5 29 28 c 1
 55 126 l 1
 80 126 l 1
 73 65 96 30 149 26 c 1
 195 197 l 1
 152 226 97 264 115 331 c 0
 133 399 197 434 260 439 c 1
 271 481 l 1
 309 481 l 1
 298 439 l 1
 333 436 367 425 391 401 c 1
 369 317 l 1
 345 317 l 1
 350 367 330 399 289 405 c 1
 249 259 l 1
 299 227 357 194 336 116 c 0
217 280 m 0
 251 405 l 0
 229 400 192 378 184 347 c 0
 175 313 197 297 217 280 c 0
265 99 m 0
 275 137 253 159 227 177 c 1
 187 27 l 1
 225 35 254 60 265 99 c 0
EndSplineSet
EndChar
StartChar: percent
Encoding: 37 37 6
Width: 542
Flags: HW
HStem: -7 36<366.5 402.5> 189 42 419 30
Fore
549 458 m 1
 165 -7 l 1
 115 -7 l 1
 446 393 l 1
 413 383 380 381 357 385 c 1
 357 377 357 368 355 361 c 0
 330 268 228 189 168 189 c 0
 113 189 92 225 109 286 c 0
 128 360 223 449 300 449 c 0
 324 449 338 443 351 426 c 1
 363 415 376 413 395 413 c 0
 431 413 470 429 500 458 c 1
 549 458 l 1
556 171 m 0
 556 171 l 0
 527 64 432 -7 373 -7 c 0
 300 -7 294 36 308 90 c 0
 328 164 423 250 500 250 c 0
 549 250 566 209 556 171 c 0
324 370 m 0
 324 370 l 0
 326 378 326 386 327 394 c 1
 308 401 304 414 294 414 c 0
 271 414 191 352 169 268 c 0
 163 245 165 228 190 228 c 1
 252 234 308 311 324 370 c 0
522 167 m 0
 528 189 522 213 497 213 c 0
 465 213 435 179 415 153 c 0
 365 85 343 29 390 29 c 0
 447 29 509 118 522 167 c 0
EndSplineSet
EndChar
StartChar: ampersand
Encoding: 38 38 7
Width: 506
Flags: HW
HStem: -7 52 416 42
Fore
521 78 m 1
 521 78 l 0
 467 20 435 -7 388 -7 c 0
 344 -7 315 20 292 49 c 1
 246 16 191 -7 141 -7 c 0
 63 -7 29 33 48 104 c 0
 68 178 155 232 213 259 c 1
 210 287 209 316 217 346 c 0
 233 407 291 458 354 458 c 0
 406 458 441 427 427 372 c 0
 411 314 352 278 299 256 c 1
 310 215 324 176 341 139 c 1
 370 166 413 212 421 243 c 0
 425 258 418 265 386 268 c 1
 393 295 l 1
 549 295 l 1
 542 268 l 1
 495 262 483 246 458 216 c 0
 425 176 379 127 360 107 c 1
 376 80 396 56 434 56 c 0
 457 56 477 69 501 95 c 1
 521 78 l 1
377 374 m 0
 377 374 l 0
 384 399 372 421 347 421 c 0
 313 421 297 395 289 367 c 0
 283 345 287 313 291 292 c 1
 327 308 367 337 377 374 c 0
273 79 m 1
 250 123 234 172 220 222 c 1
 176 198 141 171 128 122 c 0
 117 82 143 44 183 44 c 0
 206 44 243 59 273 79 c 1
EndSplineSet
EndChar
StartChar: quotesingle
Encoding: 39 39 8
Width: 117
Flags: HW
HStem: 440 20<171.5 192>
Fore
208 423 m 2
 149 288 l 1
 122 288 l 1
 136 423 l 1
 137 442 161 460 182 460 c 0
 202 460 216 441 208 423 c 2
EndSplineSet
EndChar
StartChar: parenleft
Encoding: 40 40 9
Width: 217
Flags: HW
HStem: 440 20<318 318>
Fore
183 -96 m 1
 160 -118 l 1
 85 -56 34 36 71 177 c 0
 103 293 187 390 318 460 c 1
 325 434 l 1
 218 372 170 281 144 183 c 0
 116 78 103 -15 183 -96 c 1
EndSplineSet
EndChar
StartChar: parenright
Encoding: 41 41 10
Width: 217
Flags: HW
Fore
236 159 m 0
 205 44 111 -56 -9 -118 c 1
 -17 -95 l 1
 92 -31 138 59 164 157 c 0
 192 263 206 365 125 435 c 1
 148 459 l 1
 175 442 286 347 236 159 c 0
EndSplineSet
EndChar
StartChar: asterisk
Encoding: 42 42 11
Width: 325
Flags: HW
HStem: 442 20<271 304>
Fore
356 242 m 0
 331 213 305 227 295 247 c 0
 287 262 277 272 255 291 c 1
 250 263 252 241 252 223 c 0
 252 201 241 167 209 167 c 0
 175 167 182 200 197 223 c 0
 209 241 216 258 227 291 c 1
 194 274 178 263 163 247 c 1
 142 228 109 213 99 243 c 0
 91 271 126 290 148 296 c 1
 166 299 190 305 216 316 c 1
 192 330 178 335 160 337 c 1
 138 342 114 359 139 389 c 0
 163 417 189 401 201 385 c 0
 211 372 221 355 240 339 c 1
 247 372 248 388 246 406 c 0
 243 429 254 462 288 462 c 0
 320 462 313 428 301 406 c 0
 291 389 279 366 268 339 c 1
 294 355 314 374 330 387 c 0
 351 403 385 418 394 390 c 0
 403 362 371 343 345 340 c 0
 325 336 307 328 273 315 c 1
 296 304 318 299 335 295 c 0
 355 289 379 270 356 242 c 0
EndSplineSet
EndChar
StartChar: plus
Encoding: 43 43 12
Width: 367
Flags: HW
HStem: 157 58<70 197 270 397>
Fore
397 157 m 1
 254 157 l 1
 215 13 l 1
 158 13 l 1
 197 157 l 1
 54 157 l 1
 70 215 l 1
 213 215 l 1
 251 357 l 1
 308 357 l 1
 270 215 l 1
 413 215 l 1
 397 157 l 1
EndSplineSet
EndChar
StartChar: comma
Encoding: 44 44 13
Width: 163
Flags: HW
HStem: -6 90
Fore
143 12 m 0
 133 -26 74 -78 30 -93 c 1
 24 -67 l 1
 52 -55 92 -23 97 -3 c 0
 97 -2 97 -1 96 -1 c 0
 90 -1 80 -3 74 -3 c 0
 52 -1 36 13 43 37 c 0
 51 67 73 84 103 84 c 0
 147 84 152 45 143 12 c 0
EndSplineSet
EndChar
StartChar: hyphen
Encoding: 45 45 14
Width: 217
Flags: HW
HStem: 157 58
Fore
238 157 m 1
 62 157 l 1
 77 214 l 1
 253 214 l 1
 238 157 l 1
EndSplineSet
EndChar
StartChar: period
Encoding: 46 46 15
Width: 163
Flags: HW
HStem: -7 90
Fore
137 38 m 0
 130 11 104 -7 79 -7 c 0
 55 -7 40 15 46 38 c 0
 53 62 79 84 104 84 c 0
 129 84 144 65 137 38 c 0
EndSplineSet
EndChar
StartChar: slash
Encoding: 47 47 16
Width: 181
Flags: HW
HStem: 442 20<274 332 332 332>
Fore
332 462 m 1
 21 -68 l 1
 -37 -68 l 1
 274 462 l 1
 332 462 l 1
EndSplineSet
EndChar
StartChar: zero
Encoding: 48 48 17
Width: 350
Flags: HW
HStem: -9 20 426 30
Fore
388 221 m 0
 388 221 l 0
 363 128 289 -9 168 -9 c 0
 72 -9 44 93 79 225 c 0
 105 322 178 456 295 456 c 0
 397 456 424 354 388 221 c 0
309 220 m 0
 339 331 349 423 290 423 c 0
 220 423 183 316 155 212 c 0
 130 120 115 25 182 25 c 0
 252 25 283 125 309 220 c 0
EndSplineSet
EndChar
StartChar: one
Encoding: 49 49 18
Width: 350
Flags: HW
HStem: 0 20 441 20<341 341>
Fore
278 0 m 1
 84 0 l 1
 90 24 l 1
 144 28 155 36 161 60 c 1
 239 352 l 1
 251 394 231 383 176 365 c 1
 182 390 l 1
 341 461 l 1
 233 60 l 1
 227 36 234 28 284 24 c 1
 278 0 l 1
EndSplineSet
EndChar
StartChar: two
Encoding: 50 50 19
Width: 350
Flags: HW
HStem: 0 67 398 58
Fore
361 101 m 1
 293 0 l 1
 26 0 l 1
 33 20 l 1
 176 139 l 2
 229 183 292 243 309 307 c 0
 323 359 299 393 247 393 c 0
 200 393 166 353 136 306 c 1
 110 315 l 1
 148 399 214 456 297 456 c 0
 365 456 407 402 388 334 c 0
 372 271 329 225 251 161 c 2
 135 66 l 1
 255 66 l 2
 299 66 303 68 344 112 c 1
 361 101 l 1
EndSplineSet
EndChar
StartChar: three
Encoding: 51 51 20
Width: 350
Flags: HW
HStem: -7 42 406 52
Fore
343 149 m 0
 315 46 210 -7 117 -7 c 0
 89 -7 35 -2 46 38 c 0
 51 57 68 68 86 68 c 0
 118 68 131 32 170 32 c 0
 219 32 260 72 273 119 c 0
 291 187 262 217 165 217 c 1
 170 240 l 1
 227 256 290 283 306 342 c 0
 316 379 296 403 259 403 c 0
 219 403 185 380 147 334 c 1
 125 341 l 1
 171 417 229 458 295 458 c 0
 369 458 393 418 378 363 c 0
 367 322 337 294 302 273 c 1
 345 249 360 212 343 149 c 0
EndSplineSet
EndChar
StartChar: four
Encoding: 52 52 21
Width: 350
Flags: HW
HStem: 0 20 102 58 429 20<340 383 383 383>
Fore
356 102 m 1
 290 102 l 1
 263 0 l 1
 197 0 l 1
 224 102 l 1
 41 102 l 1
 55 154 l 1
 340 449 l 1
 383 449 l 1
 306 159 l 1
 372 159 l 1
 356 102 l 1
240 159 m 1
 290 346 l 1
 107 159 l 1
 240 159 l 1
EndSplineSet
EndChar
StartChar: five
Encoding: 53 53 22
Width: 350
Flags: HW
HStem: -7 42 382 67
Fore
432 456 m 1
 376 381 l 1
 240 381 l 1
 209 340 l 1
 306 322 377 288 342 158 c 0
 315 56 216 -7 115 -7 c 0
 86 -7 33 -2 37 35 c 0
 40 58 60 73 85 73 c 0
 126 73 130 32 165 32 c 0
 217 32 260 80 276 137 c 0
 302 234 213 265 136 270 c 1
 125 272 122 281 126 289 c 1
 243 449 l 1
 376 449 l 2
 393 449 397 449 418 468 c 1
 432 456 l 1
EndSplineSet
EndChar
StartChar: six
Encoding: 54 54 23
Width: 350
Flags: HW
HStem: -7 30 254 42 442 20<424 436>
Fore
367 149 m 0
 367 149 l 0
 345 67 272 -7 184 -7 c 0
 98 -7 47 63 80 188 c 0
 119 333 247 437 388 457 c 0
 400 458 412 462 436 462 c 1
 432 436 l 1
 403 429 383 428 359 417 c 0
 300 393 236 350 199 275 c 1
 225 288 250 296 277 296 c 0
 358 296 391 240 367 149 c 0
293 156 m 0
 300 205 294 251 241 251 c 0
 221 251 197 244 178 232 c 0
 176 230 176 230 174 229 c 1
 163 213 158 193 152 171 c 0
 130 89 143 27 203 27 c 0
 248 27 282 85 293 156 c 0
EndSplineSet
EndChar
StartChar: seven
Encoding: 55 55 24
Width: 350
Flags: HW
HStem: -7 20 382 67
Fore
430 430 m 1
 172 -7 l 1
 112 -7 l 1
 347 384 l 1
 225 384 l 2
 181 384 169 373 131 330 c 1
 111 342 l 1
 182 449 l 1
 435 449 l 1
 430 430 l 1
EndSplineSet
EndChar
StartChar: eight
Encoding: 56 56 25
Width: 350
Flags: HW
HStem: -7 30 428 30
Fore
340 110 m 0
 340 110 l 0
 320 35 241 -7 171 -7 c 0
 103 -7 51 34 71 109 c 0
 86 163 136 198 182 226 c 1
 153 264 123 288 141 353 c 0
 153 401 215 458 301 458 c 0
 357 458 411 425 394 361 c 0
 379 306 332 274 284 251 c 1
 320 215 358 174 340 110 c 0
332 359 m 0
 332 359 l 0
 343 398 324 425 286 425 c 0
 252 425 218 403 209 368 c 0
 197 326 230 294 256 273 c 1
 292 292 322 322 332 359 c 0
270 92 m 0
 284 144 237 176 205 203 c 0
 204 203 204 202 204 202 c 2
 174 182 146 147 138 116 c 0
 125 66 138 25 190 25 c 0
 228 25 259 54 270 92 c 0
EndSplineSet
EndChar
StartChar: nine
Encoding: 57 57 26
Width: 350
Flags: HW
HStem: -13 20 156 42 428 30
Fore
367 198 m 0
 367 198 l 0
 327 127 247 45 157 11 c 0
 114 -6 72 -13 44 -13 c 1
 47 15 l 1
 95 23 158 40 215 96 c 0
 240 121 265 151 284 182 c 1
 251 165 221 156 194 156 c 0
 120 156 84 211 108 301 c 0
 123 358 186 458 297 458 c 0
 358 458 395 414 401 359 c 0
 405 310 397 252 367 198 c 0
318 279 m 0
 332 332 348 425 279 425 c 0
 227 425 200 361 189 320 c 0
 175 268 170 200 232 200 c 0
 250 200 285 212 302 228 c 1
 308 244 313 260 318 279 c 0
EndSplineSet
EndChar
StartChar: colon
Encoding: 58 58 27
Width: 181
Flags: HW
HStem: -5 90 256 90
Fore
217 300 m 0
 217 300 l 0
 210 273 184 255 159 255 c 0
 133 255 120 277 126 300 c 0
 133 324 157 346 184 346 c 0
 208 346 225 327 217 300 c 0
148 40 m 0
 140 13 115 -5 90 -5 c 0
 64 -5 51 17 57 40 c 0
 63 64 87 86 114 86 c 0
 138 86 155 67 148 40 c 0
EndSplineSet
EndChar
StartChar: semicolon
Encoding: 59 59 28
Width: 181
Flags: HW
HStem: -3 90 256 90
Fore
217 302 m 0
 217 302 l 0
 211 279 182 255 159 255 c 0
 132 255 120 279 126 302 c 0
 132 325 160 346 184 346 c 0
 207 346 223 325 217 302 c 0
153 12 m 0
 143 -26 84 -78 40 -93 c 1
 34 -67 l 1
 62 -55 102 -23 107 -3 c 0
 107 -2 107 -1 106 -1 c 0
 100 -1 90 -3 84 -3 c 0
 62 -1 46 13 53 37 c 0
 61 67 83 84 113 84 c 0
 154 84 163 47 153 12 c 0
EndSplineSet
EndChar
StartChar: less
Encoding: 60 60 29
Width: 367
Flags: HW
HStem: -12 20
Fore
354 -12 m 1
 49 147 l 1
 61 192 l 1
 451 352 l 1
 436 294 l 1
 134 170 l 1
 369 46 l 1
 354 -12 l 1
EndSplineSet
EndChar
StartChar: equal
Encoding: 61 61 30
Width: 367
Flags: HW
HStem: 78 58<48 376> 204 58<82 410>
Fore
410 204 m 1
 67 204 l 1
 82 262 l 1
 425 262 l 1
 410 204 l 1
376 78 m 1
 33 78 l 1
 48 136 l 1
 391 136 l 1
 376 78 l 1
EndSplineSet
EndChar
StartChar: greater
Encoding: 62 62 31
Width: 367
Flags: HW
HStem: -2 20
Fore
399 157 m 1
 9 -2 l 1
 25 56 l 1
 326 180 l 1
 91 304 l 1
 107 362 l 1
 411 202 l 1
 399 157 l 1
EndSplineSet
EndChar
StartChar: question
Encoding: 63 63 32
Width: 289
Flags: HW
HStem: -9 90 426 30
Fore
357 345 m 0
 357 345 l 0
 346 301 307 260 274 231 c 0
 229 191 200 150 182 107 c 1
 156 107 l 1
 185 216 258 259 281 344 c 0
 292 383 282 421 240 421 c 0
 219 421 178 406 179 381 c 0
 179 375 182 375 185 369 c 0
 191 358 193 353 189 340 c 0
 183 319 165 306 143 306 c 0
 115 306 114 335 120 357 c 0
 137 420 206 456 263 456 c 0
 342 456 372 400 357 345 c 0
196 36 m 0
 189 10 161 -9 139 -9 c 0
 116 -9 98 12 105 36 c 0
 111 60 140 82 163 82 c 0
 185 82 202 61 196 36 c 0
EndSplineSet
EndChar
StartChar: at
Encoding: 64 64 33
Width: 599
Flags: HW
HStem: -101 42<226 336.5> 26 42 282 42 413 42
Fore
633 223 m 0
 633 223 l 0
 604 115 505 26 436 26 c 0
 414 26 377 32 369 71 c 1
 337 43 294 27 268 27 c 0
 218 27 189 56 208 128 c 0
 235 227 342 324 419 324 c 0
 446 324 461 311 469 296 c 1
 479 315 l 1
 552 315 l 1
 439 100 l 2
 429 81 438 70 453 70 c 0
 499 70 571 151 590 222 c 0
 621 337 537 414 437 414 c 0
 303 414 180 278 152 170 c 0
 126 75 127 -59 306 -59 c 0
 367 -59 446 -36 490 -1 c 1
 502 -9 l 1
 476 -53 l 1
 476 -53 399 -101 294 -101 c 0
 158 -101 22 -23 75 175 c 0
 105 287 243 455 448 455 c 0
 533 455 680 398 633 223 c 0
433 232 m 0
 443 267 432 278 416 278 c 0
 383 278 310 224 283 122 c 0
 273 87 277 71 301 71 c 0
 321 71 353 96 362 108 c 0
 375 123 421 187 433 232 c 0
EndSplineSet
EndChar
StartChar: A
Encoding: 65 65 34
Width: 470
Flags: HW
HStem: 0 30 141 42<202 328> 429 20<338 367 367 367>
Fore
467 0 m 1
 285 0 l 1
 293 29 l 1
 347 31 347 42 340 90 c 1
 333 141 l 1
 174 141 l 1
 157 115 121 70 115 48 c 0
 110 31 130 29 155 29 c 1
 147 0 l 1
 2 0 l 1
 10 28 l 1
 56 32 83 78 124 137 c 2
 338 449 l 1
 367 449 l 1
 427 87 l 1
 431 64 433 27 475 29 c 1
 467 0 l 1
328 183 m 1
 304 334 l 1
 202 183 l 1
 328 183 l 1
EndSplineSet
EndChar
StartChar: B
Encoding: 66 66 35
Width: 434
Flags: HW
HStem: 0 30 212 42<218 231> 419 30
Fore
430 127 m 0
 430 127 l 0
 408 45 325 0 218 0 c 2
 5 0 l 1
 13 29 l 1
 66 29 80 44 84 60 c 1
 172 389 l 2
 176 404 171 420 118 420 c 1
 125 449 l 1
 307 449 l 2
 413 449 486 418 463 331 c 0
 450 282 415 251 371 235 c 1
 414 218 445 183 430 127 c 0
379 329 m 0
 379 329 l 0
 391 374 370 398 331 405 c 1
 280 409 259 407 254 389 c 2
 218 254 l 1
 263 254 l 2
 323 254 366 281 379 329 c 0
339 128 m 0
 359 201 289 212 231 212 c 2
 207 212 l 1
 168 67 l 2
 163 48 167 40 206 40 c 0
 269 40 321 58 339 128 c 0
EndSplineSet
EndChar
StartChar: C
Encoding: 67 67 36
Width: 434
Flags: HW
HStem: -9 42 414 42
Fore
445 80 m 1
 387 25 308 -9 243 -9 c 0
 112 -9 34 75 74 223 c 0
 110 357 230 456 366 456 c 0
 450 456 467 400 504 455 c 1
 531 455 l 1
 493 293 l 1
 464 293 l 1
 463 366 432 413 361 413 c 0
 259 413 193 330 163 218 c 0
 140 131 160 36 261 36 c 0
 323 36 369 56 432 106 c 1
 445 80 l 1
EndSplineSet
EndChar
StartChar: D
Encoding: 68 68 37
Width: 470
Flags: HW
HStem: 0 30 419 30
Fore
516 224 m 0
 516 224 l 0
 480 88 366 0 186 0 c 2
 5 0 l 1
 13 29 l 1
 61 29 74 44 78 60 c 1
 166 389 l 2
 170 404 166 420 118 420 c 1
 125 449 l 1
 301 449 l 2
 472 449 556 375 516 224 c 0
429 223 m 0
 462 346 398 408 283 408 c 0
 259 408 254 408 248 383 c 1
 163 67 l 2
 158 49 169 44 180 43 c 0
 306 37 398 108 429 223 c 0
EndSplineSet
EndChar
StartChar: E
Encoding: 69 69 38
Width: 397
Flags: HW
HStem: 0 42 213 42 419 30
Fore
433 126 m 1
 365 0 l 1
 0 0 l 1
 8 29 l 1
 55 29 69 44 73 60 c 1
 161 389 l 2
 165 404 160 420 113 420 c 1
 120 449 l 1
 481 449 l 1
 452 340 l 1
 423 340 l 1
 426 378 414 406 374 406 c 2
 269 406 l 2
 258 406 247 400 244 389 c 2
 208 255 l 1
 291 255 l 2
 330 255 367 264 381 317 c 1
 410 317 l 1
 365 149 l 1
 336 149 l 1
 350 202 319 212 280 212 c 2
 197 212 l 1
 156 60 l 2
 154 53 152 43 160 43 c 2
 246 43 l 2
 295 43 343 44 399 126 c 1
 433 126 l 1
EndSplineSet
EndChar
StartChar: F
Encoding: 70 70 39
Width: 362
Flags: HW
HStem: 0 30 213 42 419 30
Fore
453 340 m 1
 422 340 l 1
 433 412 396 406 354 406 c 2
 268 406 l 2
 253 406 247 399 244 389 c 1
 208 255 l 1
 285 255 l 2
 324 255 361 264 375 317 c 1
 405 317 l 1
 360 149 l 1
 330 149 l 1
 344 202 313 212 274 212 c 2
 197 212 l 1
 156 60 l 1
 152 44 157 29 206 29 c 1
 198 0 l 1
 0 0 l 1
 8 29 l 1
 55 29 69 44 73 60 c 1
 161 389 l 2
 165 404 160 420 113 420 c 1
 120 449 l 1
 482 449 l 1
 453 340 l 1
EndSplineSet
EndChar
StartChar: G
Encoding: 71 71 40
Width: 470
Flags: HW
HStem: -9 42 218 30 414 42<363 394.5>
Fore
525 219 m 1
 481 219 474 200 465 169 c 1
 431 40 l 1
 383 17 301 -9 247 -9 c 0
 132 -9 27 64 69 222 c 0
 105 356 228 456 363 456 c 0
 438 456 473 405 503 456 c 1
 531 456 l 1
 495 302 l 1
 467 302 l 1
 461 373 431 414 358 414 c 0
 255 414 188 326 159 217 c 0
 133 121 162 34 266 34 c 0
 289 34 316 38 340 47 c 0
 355 54 356 57 360 72 c 2
 386 169 l 1
 395 201 397 219 343 219 c 1
 350 248 l 1
 532 248 l 1
 525 219 l 1
EndSplineSet
EndChar
StartChar: H
Encoding: 72 72 41
Width: 470
Flags: HW
HStem: 0 30 210 42 419 30
Fore
465 0 m 1
 268 0 l 1
 276 29 l 1
 324 29 338 44 342 60 c 1
 382 209 l 1
 201 209 l 1
 161 60 l 1
 157 44 162 29 210 29 c 1
 202 0 l 1
 5 0 l 1
 13 29 l 1
 61 29 74 44 78 60 c 1
 166 389 l 2
 170 404 166 420 119 420 c 1
 122 449 l 1
 322 449 l 1
 315 420 l 1
 267 420 253 404 249 389 c 2
 213 252 l 1
 394 252 l 1
 430 389 l 2
 434 404 429 420 381 420 c 1
 388 449 l 1
 585 449 l 1
 578 420 l 1
 531 420 516 404 512 389 c 2
 424 60 l 1
 420 44 426 29 473 29 c 1
 465 0 l 1
EndSplineSet
EndChar
StartChar: I
Encoding: 73 73 42
Width: 217
Flags: HW
HStem: 0 30 419 30
Fore
214 0 m 1
 4 0 l 1
 12 29 l 1
 66 29 80 44 84 60 c 1
 172 389 l 2
 176 404 171 420 117 420 c 1
 124 449 l 1
 334 449 l 1
 327 420 l 1
 273 420 258 404 254 389 c 2
 166 60 l 1
 162 44 168 29 222 29 c 1
 214 0 l 1
EndSplineSet
EndChar
StartChar: J
Encoding: 74 74 43
Width: 253
Flags: HW
HStem: -9 42 419 30
Fore
366 420 m 1
 312 420 297 404 293 389 c 2
 226 137 l 1
 199 39 135 -9 71 -9 c 0
 49 -9 8 0 10 35 c 1
 11 46 l 1
 16 65 38 86 61 86 c 0
 87 86 95 65 91 56 c 0
 86 47 88 32 97 32 c 0
 113 32 123 59 129 82 c 2
 211 389 l 2
 215 404 210 420 156 420 c 1
 163 449 l 1
 373 449 l 1
 366 420 l 1
EndSplineSet
EndChar
StartChar: K
Encoding: 75 75 44
Width: 470
Flags: HW
HStem: 0 30 419 30
Fore
469 0 m 1
 255 0 l 1
 263 29 l 1
 307 29 315 32 309 46 c 1
 300 77 270 122 251 146 c 1
 209 205 l 1
 199 199 l 1
 162 60 l 2
 158 44 164 29 213 29 c 1
 205 0 l 1
 5 0 l 1
 13 29 l 1
 62 29 76 44 80 60 c 1
 168 389 l 2
 172 404 167 420 118 420 c 1
 125 449 l 1
 326 449 l 1
 319 420 l 1
 269 420 254 404 250 389 c 2
 214 254 l 1
 268 292 398 380 405 406 c 0
 410 425 384 419 365 421 c 1
 372 449 l 1
 558 449 l 1
 551 420 l 1
 497 420 467 396 429 366 c 2
 287 254 l 1
 356 150 l 1
 387 102 l 2
 410 66 425 29 477 29 c 1
 469 0 l 1
EndSplineSet
EndChar
StartChar: L
Encoding: 76 76 45
Width: 397
Flags: HW
HStem: 0 42 419 30
Fore
435 129 m 1
 364 0 l 1
 0 0 l 1
 8 29 l 1
 55 29 69 44 73 60 c 1
 161 389 l 2
 165 404 160 420 113 420 c 1
 120 449 l 1
 317 449 l 1
 310 420 l 1
 262 420 248 404 244 389 c 2
 156 60 l 2
 152 45 174 43 209 43 c 0
 287 43 341 39 403 129 c 1
 435 129 l 1
EndSplineSet
EndChar
StartChar: M
Encoding: 77 77 46
Width: 578
Flags: HW
HStem: 0 30 419 30
Fore
574 0 m 1
 378 0 l 1
 386 29 l 1
 433 29 447 44 451 60 c 1
 527 344 l 1
 281 0 l 1
 262 0 l 1
 200 329 l 1
 128 60 l 1
 124 44 130 29 183 29 c 1
 175 0 l 1
 5 0 l 1
 13 29 l 1
 66 29 80 44 84 60 c 1
 172 389 l 2
 176 404 171 420 119 420 c 1
 126 449 l 1
 268 449 l 1
 328 129 l 1
 551 449 l 1
 694 449 l 1
 687 420 l 1
 639 420 625 404 621 389 c 2
 533 60 l 1
 529 44 535 29 582 29 c 1
 574 0 l 1
EndSplineSet
EndChar
StartChar: N
Encoding: 78 78 47
Width: 470
Flags: HW
HStem: 0 30 419 30
Fore
582 420 m 1
 529 420 514 404 510 389 c 2
 404 -9 l 1
 382 -9 l 1
 198 337 l 1
 124 60 l 2
 120 44 125 29 179 29 c 1
 171 0 l 1
 0 0 l 1
 8 29 l 1
 61 29 75 44 79 60 c 1
 167 388 l 1
 165 394 l 1
 152 414 150 420 113 420 c 1
 120 449 l 1
 243 449 l 1
 401 149 l 1
 465 389 l 2
 469 404 465 420 411 420 c 1
 418 449 l 1
 589 449 l 1
 582 420 l 1
EndSplineSet
EndChar
StartChar: O
Encoding: 79 79 48
Width: 470
Flags: HW
HStem: -9 42 414 42
Fore
515 223 m 0
 515 223 l 0
 480 93 368 -9 233 -9 c 0
 114 -9 36 81 74 223 c 0
 110 358 226 458 357 456 c 1
 475 461 553 367 515 223 c 0
426 223 m 1
 452 320 444 418 346 416 c 1
 253 410 196 342 164 223 c 0
 129 95 168 25 242 31 c 0
 356 40 411 157 426 223 c 1
EndSplineSet
EndChar
StartChar: P
Encoding: 80 80 49
Width: 362
Flags: HW
HStem: 0 30 188 42 419 30
Fore
449 327 m 0
 449 327 l 0
 422 226 325 188 237 188 c 0
 222 188 206 189 190 190 c 1
 155 60 l 1
 151 44 157 29 204 29 c 1
 196 0 l 1
 -1 0 l 1
 7 29 l 1
 55 29 69 44 73 60 c 1
 161 389 l 2
 165 404 161 420 116 420 c 1
 123 449 l 1
 294 449 l 2
 400 449 470 408 449 327 c 0
360 322 m 0
 379 391 326 408 268 408 c 0
 249 408 248 406 243 387 c 2
 201 231 l 1
 209 230 216 229 224 229 c 0
 289 229 342 252 360 322 c 0
EndSplineSet
EndChar
StartChar: Q
Encoding: 81 81 50
Width: 470
Flags: HW
HStem: -115 30 414 42
Fore
433 -115 m 1
 433 -115 l 0
 309 -115 236 -95 193 -40 c 0
 184 -29 176 -11 167 -3 c 1
 164 3 155 5 152 6 c 0
 70 30 49 131 74 223 c 0
 109 355 219 456 357 456 c 0
 493 456 550 354 515 223 c 0
 482 100 378 9 291 -4 c 1
 320 -55 364 -86 440 -88 c 1
 433 -115 l 1
426 223 m 0
 459 346 426 416 346 416 c 0
 261 415 197 347 164 223 c 0
 131 101 162 31 243 31 c 0
 329 31 395 109 426 223 c 0
EndSplineSet
EndChar
StartChar: R
Encoding: 82 82 51
Width: 434
Flags: HW
HStem: 0 30 419 30
Fore
433 0 m 1
 317 0 l 1
 216 200 l 1
 191 199 l 1
 154 60 l 2
 150 44 155 29 203 29 c 1
 195 0 l 1
 0 0 l 1
 8 29 l 1
 54 29 67 44 71 60 c 1
 159 389 l 2
 163 404 159 420 113 420 c 1
 120 449 l 1
 300 449 l 2
 414 449 470 406 448 326 c 0
 430 257 368 222 306 210 c 1
 387 62 l 2
 398 43 407 31 441 28 c 1
 433 0 l 1
361 325 m 0
 377 384 340 408 287 408 c 0
 252 408 248 410 241 385 c 1
 202 239 l 1
 286 243 344 261 361 325 c 0
EndSplineSet
EndChar
StartChar: S
Encoding: 83 83 52
Width: 362
Flags: HW
HStem: -9 42 414 42
Fore
359 118 m 0
 342 56 275 -9 180 -9 c 0
 117 -9 87 43 66 -9 c 1
 38 -9 l 1
 58 147 l 1
 87 147 l 1
 92 84 121 32 186 32 c 0
 233 32 275 72 274 118 c 0
 272 209 95 214 129 339 c 0
 147 408 216 456 283 456 c 0
 348 456 364 405 393 456 c 1
 420 456 l 1
 395 301 l 1
 363 301 l 1
 365 364 338 413 282 413 c 0
 248 413 216 395 206 359 c 0
 197 324 229 300 251 284 c 0
 328 229 380 199 359 118 c 0
EndSplineSet
EndChar
StartChar: T
Encoding: 84 84 53
Width: 397
Flags: HW
HStem: 0 30 407 42
Fore
480 322 m 1
 450 322 l 1
 458 407 429 405 387 405 c 2
 349 405 l 1
 256 60 l 1
 252 44 257 29 305 29 c 1
 297 0 l 1
 100 0 l 1
 108 29 l 1
 156 29 169 44 173 60 c 1
 266 405 l 1
 225 405 180 408 158 384 c 1
 141 368 133 347 121 322 c 1
 90 322 l 1
 128 449 l 1
 510 449 l 1
 480 322 l 1
EndSplineSet
EndChar
StartChar: U
Encoding: 85 85 54
Width: 470
Flags: HW
HStem: -9 42 419 30
Fore
579 420 m 1
 528 420 513 404 509 389 c 2
 454 182 l 1
 433 105 410 45 322 9 c 0
 298 -2 261 -9 232 -9 c 0
 108 -9 73 48 106 173 c 1
 164 389 l 2
 168 404 163 420 116 420 c 1
 123 449 l 1
 319 449 l 1
 312 420 l 1
 265 420 250 404 246 389 c 2
 187 168 l 2
 162 73 180 36 257 36 c 0
 371 36 394 124 410 182 c 1
 465 389 l 2
 469 404 464 420 413 420 c 1
 420 449 l 1
 586 449 l 1
 579 420 l 1
EndSplineSet
EndChar
StartChar: V
Encoding: 86 86 55
Width: 470
Flags: HW
HStem: -9 20 419 30
Fore
577 420 m 1
 542 420 525 401 510 378 c 0
 431 263 318 90 254 -9 c 1
 236 -9 l 1
 172 350 l 1
 165 386 161 420 118 420 c 1
 125 449 l 1
 314 449 l 1
 307 420 l 1
 266 420 257 417 253 404 c 0
 250 391 261 343 262 330 c 1
 298 133 l 1
 441 349 l 2
 449 362 465 386 469 400 c 0
 475 420 450 420 428 420 c 1
 435 449 l 1
 584 449 l 1
 577 420 l 1
EndSplineSet
EndChar
StartChar: W
Encoding: 87 87 56
Width: 614
Flags: HW
HStem: -9 20 419 30
Fore
730 421 m 1
 708 419 694 416 683 406 c 0
 674 397 669 388 665 379 c 1
 425 -9 l 1
 406 -9 l 1
 377 253 l 1
 212 -9 l 1
 191 -9 l 1
 165 278 l 1
 162 310 158 371 149 399 c 0
 145 413 133 418 111 421 c 1
 118 449 l 1
 293 449 l 1
 286 420 l 1
 270 420 l 2
 253 418 243 419 239 402 c 0
 237 396 239 378 240 373 c 1
 265 152 l 1
 368 313 l 1
 367 340 365 371 359 395 c 0
 354 415 341 420 311 420 c 1
 318 449 l 1
 508 449 l 1
 501 420 l 1
 478 420 452 424 447 408 c 0
 445 399 446 388 446 384 c 1
 473 152 l 1
 597 347 l 2
 615 376 627 400 624 409 c 0
 620 420 603 419 585 421 c 1
 592 449 l 1
 737 449 l 1
 730 421 l 1
EndSplineSet
EndChar
StartChar: X
Encoding: 88 88 57
Width: 470
Flags: HW
HStem: 0 30 419 30
Fore
467 0 m 1
 258 0 l 1
 266 29 l 1
 310 29 321 32 318 50 c 1
 318 65 306 94 300 107 c 1
 269 182 l 1
 182 100 l 2
 166 86 147 69 134 53 c 0
 123 39 136 29 175 29 c 1
 167 0 l 1
 0 0 l 1
 8 29 l 1
 51 29 86 65 129 106 c 2
 253 221 l 1
 216 316 l 1
 185 392 173 418 121 420 c 1
 128 449 l 1
 340 449 l 1
 333 420 l 1
 292 420 284 420 280 408 c 0
 275 389 305 325 312 310 c 2
 323 286 l 1
 405 362 l 2
 416 372 442 392 446 407 c 0
 451 424 423 420 404 420 c 1
 411 449 l 1
 582 449 l 1
 575 420 l 1
 523 420 478 379 453 356 c 2
 338 248 l 1
 409 80 l 1
 427 42 439 29 475 29 c 1
 467 0 l 1
EndSplineSet
EndChar
StartChar: Y
Encoding: 89 89 58
Width: 470
Flags: HW
HStem: 0 30 419 30
Fore
578 421 m 1
 526 414 487 371 462 344 c 2
 334 205 l 1
 295 60 l 1
 291 44 297 29 353 29 c 1
 345 0 l 1
 131 0 l 1
 139 29 l 1
 195 29 209 44 213 60 c 1
 250 197 l 1
 201 315 l 1
 176 377 171 419 120 420 c 1
 127 449 l 1
 325 449 l 1
 318 420 l 1
 282 420 271 421 268 410 c 0
 265 398 269 388 274 379 c 1
 325 251 l 1
 442 380 l 1
 450 390 463 401 462 413 c 0
 461 420 456 420 420 420 c 1
 427 449 l 1
 585 449 l 1
 578 421 l 1
EndSplineSet
EndChar
StartChar: Z
Encoding: 90 90 59
Width: 397
Flags: HW
HStem: 0 42 407 42
Fore
432 131 m 1
 380 0 l 1
 -3 0 l 1
 2 19 l 1
 383 408 l 1
 263 408 l 2
 201 408 162 397 130 321 c 1
 97 321 l 1
 146 449 l 1
 506 449 l 1
 499 431 l 1
 121 41 l 1
 265 41 l 2
 331 41 364 58 402 131 c 1
 432 131 l 1
EndSplineSet
EndChar
StartChar: bracketleft
Encoding: 91 91 60
Width: 217
Flags: HW
HStem: -102 30 419 30
Fore
176 -102 m 1
 22 -102 l 1
 169 449 l 1
 323 449 l 1
 314 416 l 1
 255 416 l 2
 232 416 225 411 219 388 c 2
 105 -36 l 2
 98 -63 103 -69 128 -69 c 2
 185 -69 l 1
 176 -102 l 1
EndSplineSet
EndChar
StartChar: backslash
Encoding: 92 92 61
Width: 181
Flags: HW
HStem: 0 20 440 20<55 121 121 121>
Fore
249 0 m 1
 183 0 l 1
 55 460 l 1
 121 460 l 1
 249 0 l 1
EndSplineSet
EndChar
StartChar: bracketright
Encoding: 93 93 62
Width: 217
Flags: HW
HStem: -102 30 419 30
Fore
140 -102 m 1
 -13 -102 l 1
 -4 -69 l 1
 49 -69 l 2
 81 -68 85 -64 93 -33 c 1
 202 372 l 1
 209 401 216 416 191 416 c 2
 125 416 l 1
 134 449 l 1
 287 449 l 1
 140 -102 l 1
EndSplineSet
EndChar
StartChar: asciicircum
Encoding: 94 94 63
Width: 305
Flags: HW
Fore
354 167 m 1
 289 167 l 1
 253 375 l 1
 106 167 l 1
 42 167 l 1
 247 447 l 1
 299 447 l 1
 354 167 l 1
EndSplineSet
EndChar
StartChar: underscore
Encoding: 95 95 64
Width: 325
Flags: HW
HStem: -108 42
Fore
304 -108 m 1
 -37 -108 l 1
 -25 -64 l 1
 316 -64 l 1
 304 -108 l 1
EndSplineSet
EndChar
StartChar: grave
Encoding: 96 96 65
Width: 217
Flags: HW
Fore
267 330 m 1
 219 331 l 1
 139 390 l 2
 128 397 113 412 117 425 c 0
 122 445 135 457 153 457 c 0
 166 457 184 448 190 433 c 1
 267 330 l 1
EndSplineSet
EndChar
StartChar: a
Encoding: 97 97 66
Width: 289
Flags: HW
HStem: -7 52 284 30
Fore
315 70 m 0
 304 34 l 0
 290 21 252 -7 232 -7 c 0
 200 -7 189 12 190 35 c 1
 156 12 117 -7 91 -7 c 0
 47 -7 24 28 35 70 c 0
 56 149 166 180 230 202 c 1
 246 260 249 283 213 283 c 0
 202 283 182 280 173 270 c 1
 169 263 169 251 165 235 c 0
 160 216 137 198 118 198 c 0
 81 198 81 230 106 261 c 0
 141 303 187 314 230 314 c 0
 308 314 322 281 299 195 c 2
 263 58 l 2
 258 40 272 43 315 70 c 0
195 70 m 1
 221 169 l 1
 180 155 127 143 114 93 c 0
 108 70 114 48 140 48 c 0
 150 48 184 58 195 70 c 1
EndSplineSet
EndChar
StartChar: b
Encoding: 98 98 67
Width: 325
Flags: HW
HStem: -7 42 262 52 444 20<236 236>
Fore
360 166 m 0
 360 166 l 0
 337 77 250 -7 156 -7 c 0
 117 -7 80 4 58 26 c 0
 52 31 51 40 54 52 c 2
 140 372 l 1
 149 408 142 403 106 403 c 1
 113 429 l 1
 144 437 162 440 180 446 c 2
 236 464 l 1
 187 279 l 1
 214 302 248 314 280 314 c 0
 360 314 379 236 360 166 c 0
280 138 m 0
 293 186 298 258 237 258 c 0
 195 258 175 234 168 209 c 1
 129 63 l 1
 122 46 129 45 141 38 c 0
 150 34 165 31 175 31 c 0
 235 31 267 88 280 138 c 0
EndSplineSet
EndChar
StartChar: c
Encoding: 99 99 68
Width: 289
Flags: HW
HStem: -7 58 284 30
Fore
308 109 m 1
 259 43 206 -7 136 -7 c 0
 62 -7 25 62 47 147 c 0
 71 236 144 314 246 314 c 0
 286 314 342 291 332 243 c 0
 327 224 304 206 285 206 c 0
 266 206 252 224 257 242 c 0
 263 264 254 279 225 279 c 0
 173 279 135 224 122 174 c 0
 107 118 120 55 182 55 c 0
 222 55 255 84 289 121 c 1
 308 109 l 1
EndSplineSet
EndChar
StartChar: d
Encoding: 100 100 69
Width: 325
Flags: HW
HStem: -7 52 278 36<202 248> 444 20<408 408>
Fore
335 31 m 1
 335 31 l 0
 296 20 260 9 209 -14 c 1
 220 25 l 1
 195 6 164 -7 136 -7 c 0
 50 -7 27 68 48 145 c 0
 69 225 150 314 238 314 c 0
 263 314 281 305 293 297 c 1
 313 372 l 2
 322 407 317 403 278 403 c 1
 285 429 l 1
 317 437 334 441 352 446 c 2
 408 464 l 1
 302 67 l 2
 297 48 318 55 342 55 c 1
 335 31 l 1
236 84 m 1
 267 203 l 1
 279 245 269 278 227 278 c 0
 177 278 140 220 125 165 c 0
 104 86 126 41 174 41 c 0
 206 41 230 65 236 84 c 1
EndSplineSet
EndChar
StartChar: e
Encoding: 101 101 70
Width: 289
Flags: HW
HStem: -7 58 180 36<129 244> 272 42
Fore
316 116 m 1
 316 116 l 0
 273 46 204 -7 136 -7 c 0
 57 -7 24 65 46 147 c 0
 73 245 147 314 231 314 c 0
 306 314 338 260 318 180 c 1
 115 180 l 1
 104 123 113 53 179 53 c 0
 219 53 260 85 294 126 c 1
 316 116 l 1
244 216 m 1
 249 246 242 275 207 275 c 0
 169 275 144 249 129 216 c 1
 244 216 l 1
EndSplineSet
EndChar
StartChar: f
Encoding: 102 102 71
Width: 217
Flags: HW
HStem: 0 20 271 36<88 132 212 282> 378 82
Fore
367 416 m 1
 363 398 344 377 325 377 c 0
 288 377 305 410 282 423 c 0
 278 426 269 427 264 424 c 1
 239 418 234 387 229 368 c 2
 212 307 l 1
 291 307 l 1
 282 271 l 1
 203 271 l 1
 146 60 l 1
 140 36 148 28 196 24 c 1
 190 0 l 1
 5 0 l 1
 11 24 l 1
 58 28 69 36 75 60 c 1
 132 271 l 1
 79 271 l 1
 88 307 l 1
 141 307 l 1
 147 328 152 345 162 364 c 0
 188 418 243 460 301 460 c 0
 330 460 361 453 367 416 c 1
EndSplineSet
EndChar
StartChar: g
Encoding: 103 103 72
Width: 325
Flags: HW
HStem: -141 52<102 124> -9 67 99 30 284 30
Fore
381 251 m 1
 331 251 l 0
 333 234 330 216 326 203 c 0
 308 136 246 96 185 96 c 0
 175 96 163 98 152 100 c 1
 140 97 115 79 113 67 c 1
 119 56 149 58 160 57 c 0
 252 53 323 57 302 -24 c 0
 281 -102 156 -141 92 -141 c 0
 11 -141 -15 -94 -8 -66 c 0
 -1 -40 29 -21 70 7 c 1
 58 14 47 26 52 43 c 0
 58 68 91 93 121 113 c 1
 92 130 80 159 91 201 c 0
 109 270 176 314 243 314 c 0
 299 314 296 281 393 293 c 1
 381 251 l 1
256 185 m 0
 256 185 l 0
 264 218 265 280 225 280 c 0
 191 280 175 254 168 226 c 0
 158 189 153 129 201 129 c 0
 233 129 248 157 256 185 c 0
264 -36 m 0
 272 -7 229 -10 192 -9 c 0
 164 -9 127 -8 97 -3 c 1
 83 -16 63 -34 58 -51 c 0
 53 -72 72 -89 132 -89 c 0
 203 -89 255 -70 264 -36 c 0
EndSplineSet
EndChar
StartChar: h
Encoding: 104 104 73
Width: 325
Flags: HW
HStem: 0 20 262 52 444 20<234 234>
Fore
327 0 m 1
 174 0 l 1
 180 24 l 1
 214 27 225 37 231 60 c 2
 267 195 l 2
 276 228 284 263 243 263 c 0
 211 263 192 247 171 229 c 1
 126 60 l 2
 120 37 125 27 157 24 c 1
 151 0 l 1
 -2 0 l 1
 4 24 l 1
 38 27 49 37 55 60 c 2
 139 372 l 2
 148 405 142 404 106 403 c 1
 113 429 l 1
 143 437 160 441 178 446 c 2
 234 464 l 1
 184 275 l 1
 212 298 246 314 280 314 c 0
 351 314 359 274 339 196 c 1
 302 60 l 2
 296 37 301 27 333 24 c 1
 327 0 l 1
EndSplineSet
EndChar
StartChar: i
Encoding: 105 105 74
Width: 181
Flags: HW
HStem: 0 30 378 82
Fore
240 418 m 0
 240 418 l 0
 234 396 210 377 188 377 c 0
 164 377 152 396 158 418 c 0
 164 442 186 460 210 460 c 0
 232 460 246 442 240 418 c 0
177 0 m 1
 7 0 l 1
 14 25 l 1
 54 27 66 37 72 60 c 2
 114 218 l 2
 125 259 120 263 74 251 c 1
 81 277 l 1
 212 318 l 1
 143 60 l 2
 137 37 143 27 184 25 c 1
 177 0 l 1
EndSplineSet
EndChar
StartChar: j
Encoding: 106 106 75
Width: 181
Flags: HW
HStem: 378 82
Fore
258 418 m 0
 258 418 l 0
 252 396 228 377 206 377 c 0
 184 377 170 396 176 418 c 0
 182 442 206 460 228 460 c 0
 250 460 264 442 258 418 c 0
146 16 m 2
 118 -89 62 -141 -15 -141 c 0
 -35 -141 -57 -133 -66 -121 c 0
 -78 -102 -65 -73 -45 -66 c 1
 -25 -57 -9 -61 -3 -73 c 0
 1 -83 6 -95 20 -103 c 0
 40 -113 51 -74 57 -53 c 1
 133 231 l 1
 140 259 132 259 91 253 c 1
 97 277 l 1
 227 318 l 1
 146 16 l 2
EndSplineSet
EndChar
StartChar: k
Encoding: 107 107 76
Width: 325
Flags: HW
HStem: 0 30 277 30 444 20<237 237>
Fore
333 0 m 1
 176 0 l 1
 183 25 l 1
 208 25 208 32 206 36 c 2
 152 146 l 1
 129 60 l 2
 123 37 129 27 169 25 c 1
 162 0 l 1
 -7 0 l 1
 0 25 l 1
 40 27 52 37 58 60 c 2
 145 385 l 2
 151 408 144 405 107 402 c 1
 114 429 l 1
 146 437 163 441 181 446 c 2
 237 464 l 1
 166 196 l 1
 251 257 l 2
 260 264 268 270 275 278 c 1
 277 284 269 282 244 282 c 1
 250 307 l 1
 399 307 l 1
 393 282 l 1
 322 282 279 239 212 191 c 1
 271 77 l 2
 283 53 301 27 339 24 c 1
 333 0 l 1
EndSplineSet
EndChar
StartChar: l
Encoding: 108 108 77
Width: 181
Flags: HW
HStem: 0 30 443 20<251 251>
Fore
177 0 m 1
 5 0 l 1
 12 25 l 1
 54 27 65 37 71 60 c 2
 155 372 l 1
 165 412 159 406 114 406 c 1
 120 430 l 1
 159 437 208 449 251 463 c 1
 143 60 l 2
 137 37 142 27 184 25 c 1
 177 0 l 1
EndSplineSet
EndChar
StartChar: m
Encoding: 109 109 78
Width: 506
Flags: HW
HStem: 0 20 262 52
Fore
505 0 m 1
 352 0 l 1
 358 24 l 1
 392 27 403 37 409 60 c 2
 444 192 l 2
 459 248 456 263 420 263 c 0
 394 263 368 250 350 230 c 1
 304 60 l 2
 298 37 303 27 335 24 c 1
 329 0 l 1
 176 0 l 1
 182 24 l 1
 216 27 227 37 233 60 c 2
 269 195 l 1
 278 225 288 263 250 263 c 0
 226 263 193 251 175 231 c 1
 129 60 l 2
 123 37 128 27 160 24 c 1
 154 0 l 1
 1 0 l 1
 7 24 l 1
 41 27 52 37 58 60 c 2
 100 218 l 1
 110 247 104 253 69 253 c 1
 75 278 l 1
 198 318 l 1
 183 263 l 1
 180 250 189 276 199 282 c 0
 226 300 259 314 290 314 c 0
 322 314 343 294 348 266 c 1
 380 291 424 314 458 314 c 0
 541 314 529 244 513 182 c 1
 480 60 l 2
 474 37 479 27 511 24 c 1
 505 0 l 1
EndSplineSet
EndChar
StartChar: n
Encoding: 110 110 79
Width: 325
Flags: HW
HStem: 0 20 262 52
Fore
327 0 m 1
 174 0 l 1
 180 24 l 1
 214 27 225 37 231 60 c 2
 269 200 l 1
 277 233 283 263 243 263 c 0
 215 263 191 246 172 230 c 1
 126 60 l 2
 120 37 125 27 157 24 c 1
 151 0 l 1
 -2 0 l 1
 4 24 l 1
 38 27 49 37 55 60 c 2
 98 219 l 2
 109 260 105 260 67 257 c 1
 73 281 l 1
 195 317 l 1
 183 274 l 1
 212 295 245 314 286 314 c 0
 340 314 360 277 340 201 c 1
 302 60 l 2
 296 37 301 27 333 24 c 1
 327 0 l 1
EndSplineSet
EndChar
StartChar: o
Encoding: 111 111 80
Width: 325
Flags: HW
HStem: -7 36<151 203.5> 278 36<204 261>
Fore
358 163 m 0
 358 163 l 0
 334 74 253 -7 158 -7 c 0
 70 -7 30 67 52 150 c 0
 77 241 149 314 244 314 c 0
 335 314 382 253 358 163 c 0
273 132 m 0
 288 187 296 278 226 278 c 0
 182 278 152 237 138 185 c 0
 113 98 122 29 180 29 c 0
 227 29 260 81 273 132 c 0
EndSplineSet
EndChar
StartChar: p
Encoding: 112 112 81
Width: 325
Flags: HW
HStem: -141 30 -7 42 262 52<262.5 269.5>
Fore
358 166 m 0
 358 166 l 0
 334 74 251 -7 163 -7 c 0
 144 -7 127 1 115 13 c 1
 90 -81 l 1
 84 -105 90 -114 135 -116 c 1
 128 -141 l 1
 -44 -141 l 1
 -37 -117 l 1
 1 -114 13 -105 19 -81 c 1
 100 221 l 2
 108 251 111 262 63 257 c 1
 69 281 l 1
 197 317 l 1
 187 279 l 1
 188 280 190 282 192 283 c 0
 216 301 242 314 283 314 c 0
 360 314 380 247 358 166 c 0
280 140 m 0
 293 189 301 262 238 262 c 0
 221 262 201 254 187 242 c 1
 174 233 174 231 171 219 c 2
 132 75 l 1
 128 59 133 52 145 43 c 0
 154 36 166 31 179 31 c 0
 222 31 263 80 280 140 c 0
EndSplineSet
EndChar
StartChar: q
Encoding: 113 113 82
Width: 325
Flags: HW
HStem: -141 30 -7 52 284 30
Fore
294 -141 m 1
 121 -141 l 1
 128 -116 l 1
 173 -114 185 -105 191 -81 c 1
 221 30 l 1
 190 10 156 -7 124 -7 c 0
 34 -7 28 76 47 147 c 0
 71 235 153 314 247 314 c 0
 273 314 296 308 313 295 c 1
 345 312 l 1
 369 323 366 307 363 294 c 1
 262 -81 l 1
 256 -105 262 -114 301 -117 c 1
 294 -141 l 1
240 99 m 1
 271 218 l 1
 279 245 286 263 261 277 c 1
 251 281 247 282 235 282 c 0
 176 282 138 217 125 167 c 0
 107 100 117 49 165 49 c 0
 183 49 206 55 224 67 c 0
 237 77 236 85 240 99 c 1
EndSplineSet
EndChar
StartChar: r
Encoding: 114 114 83
Width: 217
Flags: HW
HStem: 0 30 262 52
Fore
295 262 m 0
 287 243 271 235 254 235 c 0
 231 235 232 258 216 258 c 0
 205 258 177 231 173 215 c 1
 131 60 l 2
 125 37 131 27 171 25 c 1
 164 0 l 1
 -5 0 l 1
 2 25 l 1
 42 27 54 37 60 60 c 2
 98 202 l 2
 112 254 108 263 62 250 c 1
 69 277 l 1
 200 318 l 1
 188 273 l 1
 210 294 239 314 265 314 c 0
 295 314 309 296 295 262 c 0
EndSplineSet
EndChar
StartChar: s
Encoding: 115 115 84
Width: 253
Flags: HW
HStem: -7 30 284 30
Fore
258 89 m 0
 242 28 185 -7 128 -7 c 0
 108 -7 98 -2 82 3 c 0
 55 12 53 8 48 -2 c 1
 24 -2 l 1
 56 116 l 1
 82 116 l 1
 77 66 86 25 136 25 c 0
 159 25 183 39 190 63 c 0
 208 132 61 134 86 226 c 0
 101 282 156 314 208 314 c 0
 224 314 235 311 255 302 c 0
 268 297 270 303 277 308 c 1
 296 308 l 1
 268 204 l 1
 244 204 l 1
 243 251 239 283 199 283 c 0
 178 283 154 270 149 249 c 0
 131 184 280 171 258 89 c 0
EndSplineSet
EndChar
StartChar: t
Encoding: 116 116 85
Width: 181
Flags: HW
HStem: -7 20 271 36<192 247>
Fore
207 53 m 1
 167 14 129 -7 96 -7 c 0
 48 -7 43 21 63 92 c 1
 111 271 l 1
 100 271 l 2
 87 271 67 272 83 293 c 1
 125 317 160 355 219 406 c 1
 192 307 l 1
 256 307 l 1
 247 271 l 1
 183 271 l 1
 138 103 l 2
 127 63 121 34 159 47 c 0
 169 51 177 58 192 72 c 1
 207 53 l 1
EndSplineSet
EndChar
StartChar: u
Encoding: 117 117 86
Width: 325
Flags: HW
HStem: -7 52 277 30
Fore
327 26 m 1
 292 16 255 4 209 -11 c 1
 222 38 l 1
 203 21 166 -7 121 -7 c 0
 64 -7 48 33 64 94 c 1
 104 243 l 1
 113 275 111 282 74 282 c 1
 80 307 l 1
 192 307 l 1
 136 97 l 1
 128 69 133 47 164 47 c 0
 180 47 199 56 215 66 c 0
 233 79 231 86 236 106 c 1
 273 242 l 2
 282 275 281 282 237 282 c 1
 243 307 l 1
 361 307 l 1
 302 86 l 1
 295 58 294 47 333 50 c 1
 327 26 l 1
EndSplineSet
EndChar
StartChar: v
Encoding: 118 118 87
Width: 325
Flags: HW
HStem: -7 20 277 30
Fore
388 282 m 1
 359 282 347 256 328 228 c 2
 184 16 l 1
 180 9 165 -7 159 -7 c 0
 155 -7 147 9 147 16 c 1
 109 252 l 1
 105 272 96 282 75 282 c 1
 81 307 l 1
 224 307 l 1
 218 282 l 1
 179 282 184 262 185 244 c 1
 205 107 l 1
 278 221 l 2
 306 265 322 282 282 282 c 1
 288 307 l 1
 394 307 l 1
 388 282 l 1
EndSplineSet
EndChar
StartChar: w
Encoding: 119 119 88
Width: 470
Flags: HW
HStem: -7 20 277 30
Fore
535 284 m 1
 513 277 502 256 494 246 c 1
 331 3 l 2
 328 -1 320 -7 316 -7 c 0
 312 -7 309 -1 306 2 c 1
 285 163 l 1
 167 3 l 2
 164 -1 155 -7 151 -7 c 0
 147 -7 143 -1 142 3 c 1
 111 228 l 2
 106 264 111 282 82 282 c 1
 88 307 l 1
 221 307 l 1
 214 281 l 1
 195 283 185 282 181 268 c 0
 177 252 188 187 190 170 c 2
 198 103 l 1
 275 210 l 1
 275 260 276 282 239 282 c 1
 245 307 l 1
 392 307 l 1
 386 282 l 1
 343 283 341 271 345 234 c 1
 359 109 l 1
 359 108 436 221 436 221 c 1
 465 265 479 282 439 282 c 1
 445 307 l 1
 541 307 l 1
 535 284 l 1
EndSplineSet
EndChar
StartChar: x
Encoding: 120 120 89
Width: 325
Flags: HW
HStem: 0 30 277 30
Fore
320 0 m 1
 173 0 l 1
 180 25 l 1
 204 26 218 25 213 35 c 1
 176 121 l 1
 120 59 l 2
 94 31 89 25 121 25 c 1
 114 0 l 1
 3 0 l 1
 10 25 l 1
 39 25 52 41 73 63 c 2
 166 159 l 1
 134 240 l 2
 126 261 129 280 84 282 c 1
 90 307 l 1
 241 307 l 1
 235 282 l 1
 212 282 205 278 204 273 c 0
 202 266 214 236 220 218 c 1
 239 235 268 262 272 275 c 0
 274 283 262 282 248 282 c 1
 254 307 l 1
 372 307 l 1
 366 282 l 1
 337 282 314 266 298 250 c 2
 234 183 l 1
 279 67 l 2
 288 44 298 25 327 25 c 1
 320 0 l 1
EndSplineSet
EndChar
StartChar: y
Encoding: 121 121 90
Width: 325
Flags: HW
HStem: -141 82 277 30
Fore
394 282 m 1
 375 282 358 262 350 250 c 2
 187 0 l 2
 154 -51 97 -141 29 -141 c 0
 9 -141 -8 -133 -14 -115 c 1
 -16 -103 -15 -92 -5 -79 c 0
 5 -65 23 -60 38 -60 c 0
 49 -60 61 -67 76 -71 c 0
 91 -75 105 -59 142 -4 c 0
 147 4 156 15 156 21 c 1
 108 259 l 1
 106 273 100 280 78 283 c 1
 84 307 l 1
 234 307 l 1
 228 282 l 1
 187 282 184 271 187 250 c 1
 214 104 l 1
 314 266 l 2
 319 274 319 281 290 282 c 1
 296 307 l 1
 400 307 l 1
 394 282 l 1
EndSplineSet
EndChar
StartChar: z
Encoding: 122 122 91
Width: 289
Flags: HW
HStem: 0 36<112 179 179 188> 271 36<157.5 182 182 249>
Fore
309 103 m 1
 270 0 l 1
 8 0 l 1
 13 19 l 1
 249 271 l 1
 182 271 l 2
 133 271 125 253 111 215 c 1
 85 215 l 1
 111 307 l 1
 354 307 l 1
 347 288 l 1
 112 36 l 1
 179 36 l 2
 197 36 216 37 235 44 c 1
 259 50 269 81 284 109 c 1
 309 103 l 1
EndSplineSet
EndChar
StartChar: braceleft
Encoding: 123 123 92
Width: 312
Flags: HW
HStem: 440 20<310 345>
Fore
200 -91 m 1
 193 -107 l 1
 113 -109 89 -90 112 -3 c 2
 140 101 l 2
 150 139 150 157 88 175 c 1
 157 193 170 212 180 249 c 2
 210 362 l 2
 232 445 275 460 345 460 c 1
 343 444 l 1
 302 434 286 412 276 372 c 1
 245 258 l 1
 234 216 220 190 186 175 c 1
 213 159 211 130 199 87 c 1
 171 -20 l 1
 160 -59 164 -84 200 -91 c 1
EndSplineSet
EndChar
StartChar: bar
Encoding: 124 124 93
Width: 130
Flags: HW
HStem: 0 20 440 20<159 217 217 217>
Fore
94 0 m 1
 36 0 l 1
 159 460 l 1
 217 460 l 1
 94 0 l 1
EndSplineSet
EndChar
StartChar: braceright
Encoding: 125 125 94
Width: 312
Flags: HW
HStem: 440 20<214 249>
Fore
320 175 m 1
 247 157 236 139 226 101 c 2
 198 -3 l 2
 175 -90 141 -109 62 -107 c 1
 65 -91 l 1
 103 -84 121 -59 132 -20 c 1
 160 87 l 1
 172 129 185 159 220 175 c 1
 194 190 195 216 206 258 c 1
 237 372 l 1
 247 412 243 434 208 444 c 1
 214 460 l 1
 284 460 318 445 296 362 c 2
 266 249 l 2
 256 212 259 193 320 175 c 1
EndSplineSet
EndChar
StartChar: asciitilde
Encoding: 126 126 95
Width: 352
Flags: HW
HStem: 174 58<141.5 173.5>
Fore
406 209 m 1
 372 167 328 129 283 129 c 0
 233 129 196 174 151 174 c 0
 118 174 94 143 66 110 c 1
 43 149 l 1
 77 190 117 232 166 232 c 0
 211 232 264 186 299 186 c 0
 325 186 356 215 382 248 c 1
 406 209 l 1
EndSplineSet
EndChar
StartChar: uni0E10.descless
Encoding: 128 63232 96
Width: 331
Flags: HW
HStem: -3 30 203 30
Fore
385 363 m 0
 385 363 l 0
 308 245 201 408 139 311 c 1
 304 265 l 2
 313 262 343 257 332 218 c 1
 295 79 l 1
 283 32 246 -3 190 -3 c 0
 143 -3 117 35 129 79 c 1
 136 110 l 1
 130 109 126 108 120 108 c 0
 80 108 65 140 75 175 c 1
 87 208 116 233 153 233 c 0
 212 234 229 204 219 168 c 2
 187 49 l 1
 185 40 187 29 199 29 c 0
 211 29 219 40 221 48 c 2
 266 217 l 2
 270 233 266 239 259 241 c 2
 89 290 l 1
 107 321 151 391 227 389 c 0
 269 389 337 347 374 381 c 0
 385 391 403 390 385 363 c 0
128 137 m 0
 174 137 192 205 146 205 c 0
 100 205 82 137 128 137 c 0
EndSplineSet
KernsSLIF: 212 20 0 0 215 20 0 0 214 20 0 0 213 20 0 0
EndChar
StartChar: uni0E34.left
Encoding: 129 63233 97
Width: 0
Flags: HW
Fore
-41 414 m 0
 -41 414 l 0
 -147 466 -222 486 -332 464 c 1
 -242 636 14 620 -41 414 c 0
-67 461 m 1
 -75 547 -183 582 -267 500 c 1
 -200 508 -125 495 -67 461 c 1
EndSplineSet
EndChar
StartChar: uni0E35.left
Encoding: 130 63234 98
Width: 0
Flags: HW
Fore
-41 414 m 0
 -41 414 l 0
 -147 466 -222 486 -332 464 c 1
 -274 574 -151 597 -83 553 c 1
 -66 617 l 1
 -3 617 l 1
 -37 489 l 1
 -32 481 -32 449 -41 414 c 0
-69 462 m 1
 -74 537 -191 570 -267 500 c 1
 -200 508 -127 496 -69 462 c 1
EndSplineSet
EndChar
StartChar: uni0E36.left
Encoding: 131 63235 99
Width: 0
Flags: HW
HStem: 590 30
Fore
-41 414 m 0
 -41 414 l 0
 -147 466 -222 486 -332 464 c 1
 -280 562 -180 587 -119 568 c 1
 -114 590 -87 620 -47 620 c 0
 29 620 6 529 -46 515 c 1
 -29 500 -32 448 -41 414 c 0
-70 533 m 0
 -70 533 l 0
 -25 533 -9 595 -54 595 c 0
 -99 595 -115 533 -70 533 c 0
-69 462 m 1
 -74 537 -191 570 -267 500 c 1
 -200 508 -127 496 -69 462 c 1
EndSplineSet
EndChar
StartChar: uni0E37.left
Encoding: 132 63236 100
Width: 0
Flags: HW
Fore
-69 462 m 0
 -69 462 l 0
 -74 537 -191 570 -267 500 c 1
 -200 508 -127 496 -69 462 c 0
-38 484 m 1
 -32 477 -33 445 -41 414 c 1
 -147 466 -222 486 -332 464 c 1
 -291 541 -219 575 -156 574 c 1
 -144 617 l 1
 -97 617 l 1
 -109 566 l 1
 -101 564 -81 554 -74 546 c 1
 -54 617 l 1
 -4 617 l 1
 -38 484 l 1
EndSplineSet
EndChar
StartChar: ellipsis
Encoding: 133 8230 101
Width: 650
Flags: HW
HStem: -9 90
Fore
597 37 m 0
 597 37 l 0
 590 12 564 -9 539 -9 c 0
 515 -9 500 13 507 37 c 0
 513 60 540 82 563 82 c 0
 587 82 603 61 597 37 c 0
381 37 m 0
 381 37 l 0
 374 12 347 -9 323 -9 c 0
 298 -9 283 13 290 37 c 0
 296 60 323 82 347 82 c 0
 371 82 387 61 381 37 c 0
164 37 m 0
 157 12 131 -9 106 -9 c 0
 82 -9 67 13 74 37 c 0
 80 60 107 82 130 82 c 0
 154 82 170 61 164 37 c 0
EndSplineSet
EndChar
StartChar: uni0E48.low_left
Encoding: 134 63237 102
Width: 0
Flags: HW
Fore
-11 603 m 1
 -63 448 l 1
 -110 448 l 1
 -79 603 l 1
 -11 603 l 1
EndSplineSet
EndChar
StartChar: uni0E49.low_left
Encoding: 135 63238 103
Width: 0
Flags: HW
HStem: 582 30
Fore
15 612 m 1
 15 612 l 0
 -64 408 -255 433 -289 436 c 1
 -282 462 l 1
 -251 466 -236 479 -226 493 c 2
 -225 495 l 1
 -225 495 -232 493 -243 494 c 0
 -309 505 -279 612 -198 612 c 0
 -134 612 -150 554 -150 553 c 0
 -165 498 -201 472 -201 472 c 1
 -201 470 l 1
 -201 470 -83 480 -51 612 c 1
 15 612 l 1
-222 521 m 0
 -182 521 -166 581 -206 581 c 0
 -246 581 -262 521 -222 521 c 0
EndSplineSet
EndChar
StartChar: uni0E4A.low_left
Encoding: 136 63239 104
Width: 0
Flags: HW
HStem: 441 20<-250.5 -225.5> 511 20<-226 -204>
Fore
6 597 m 1
 6 597 l 0
 -10 514 -82 441 -173 441 c 1
 -167 464 l 1
 -114 488 -109 554 -134 564 c 1
 -177 539 l 1
 -210 566 l 1
 -231 562 -248 535 -250 520 c 1
 -248 518 l 1
 -248 518 -237 531 -215 531 c 0
 -189 531 -173 514 -181 487 c 0
 -188 459 -212 441 -239 441 c 0
 -281 441 -296 478 -283 525 c 0
 -276 554 -239 598 -198 601 c 1
 -169 569 l 1
 -122 601 l 1
 -57 581 -77 517 -107 486 c 1
 -105 485 l 1
 -73 502 -44 542 -42 597 c 1
 6 597 l 1
-234 461 m 0
 -200 461 -187 511 -221 511 c 0
 -254 511 -267 461 -234 461 c 0
EndSplineSet
EndChar
StartChar: uni0E4B.low_left
Encoding: 137 63240 105
Width: 0
Flags: HW
HStem: 503 52
Fore
-30 504 m 1
 -91 503 l 1
 -106 450 l 1
 -154 450 l 1
 -141 503 l 1
 -202 504 l 1
 -189 552 l 1
 -128 553 l 1
 -115 606 l 1
 -63 606 l 1
 -78 553 l 1
 -17 552 l 1
 -30 504 l 1
EndSplineSet
EndChar
StartChar: uni0E4C.low_left
Encoding: 138 63241 106
Width: 0
Flags: HW
HStem: 442 30
Fore
11 621 m 1
 11 621 l 0
 -22 558 -98 544 -115 540 c 1
 -116 538 l 1
 -100 537 -87 522 -94 495 c 0
 -102 465 -132 442 -165 442 c 0
 -201 442 -215 469 -207 499 c 0
 -200 525 -172 559 -110 570 c 0
 -79 576 -52 598 -36 635 c 1
 11 621 l 1
-157 470 m 0
 -123 470 -109 524 -143 524 c 0
 -180 524 -194 470 -157 470 c 0
EndSplineSet
EndChar
StartChar: uni0E48.low
Encoding: 139 63242 107
Width: 0
Flags: HW
Fore
105 603 m 1
 53 448 l 1
 1 448 l 1
 32 603 l 1
 105 603 l 1
EndSplineSet
EndChar
StartChar: uni0E49.low
Encoding: 140 63243 108
Width: 0
Flags: HW
HStem: 607 30
Fore
207 633 m 1
 207 633 l 0
 125 411 -99 438 -128 441 c 1
 -119 473 l 1
 -100 475 -74 483 -58 506 c 1
 -58 508 l 1
 -58 508 -66 506 -77 507 c 0
 -148 514 -118 637 -26 637 c 0
 42 637 26 573 25 572 c 0
 7 502 -36 479 -36 479 c 1
 -35 477 l 1
 -35 477 106 497 137 633 c 1
 207 633 l 1
-56 536 m 0
 -10 536 7 602 -39 602 c 0
 -80 602 -97 536 -56 536 c 0
EndSplineSet
EndChar
StartChar: uni0E4A.low
Encoding: 141 63244 109
Width: 0
Flags: HW
HStem: 437 30 517 30
Fore
179 621 m 1
 179 621 l 0
 156 523 73 437 -35 437 c 1
 -28 464 l 1
 35 492 42 571 12 582 c 1
 -40 552 l 1
 -79 585 l 1
 -105 580 -124 548 -126 531 c 1
 -124 527 l 1
 -124 527 -111 542 -85 542 c 0
 -55 542 -37 523 -45 493 c 0
 -54 459 -81 437 -113 437 c 0
 -162 437 -179 480 -164 536 c 0
 -155 571 -112 622 -64 627 c 1
 -30 590 l 1
 26 627 l 1
 103 603 79 526 44 490 c 1
 46 488 l 1
 83 509 118 557 120 621 c 1
 179 621 l 1
-106 463 m 0
 -72 463 -57 517 -91 517 c 0
 -128 517 -143 463 -106 463 c 0
EndSplineSet
EndChar
StartChar: uni0E4B.low
Encoding: 142 63245 110
Width: 0
Flags: HW
HStem: 500 52
Fore
137 501 m 1
 71 500 l 1
 54 441 l 1
 -4 441 l 1
 11 500 l 1
 -56 501 l 1
 -42 554 l 1
 25 555 l 1
 39 613 l 1
 103 613 l 1
 87 555 l 1
 151 554 l 1
 137 501 l 1
EndSplineSet
EndChar
StartChar: uni0E4C.low
Encoding: 143 63246 111
Width: 0
Flags: HW
HStem: 437 30
Fore
196 634 m 1
 196 634 l 0
 158 564 75 549 57 545 c 1
 57 544 l 1
 73 543 88 525 80 495 c 0
 71 462 39 437 2 437 c 0
 -37 437 -53 467 -44 500 c 0
 -37 528 -6 563 62 579 c 0
 96 587 127 609 145 650 c 1
 196 634 l 1
9 468 m 0
 48 468 64 527 25 527 c 0
 -14 527 -30 468 9 468 c 0
EndSplineSet
EndChar
StartChar: uni0E0D.descless
Encoding: 144 63247 112
Width: 519
Flags: HW
HStem: -5 30 245 30
Fore
480 76 m 1
 480 76 l 0
 471 40 415 -5 352 -5 c 0
 291 -5 256 35 269 81 c 1
 317 261 l 2
 348 378 194 388 131 275 c 1
 254 275 l 1
 246 246 l 1
 231 246 213 246 213 246 c 2
 195 246 183 231 178 212 c 2
 153 119 l 1
 256 142 233 1 137 -4 c 0
 67 -7 68 52 76 81 c 2
 109 205 l 2
 113 219 128 243 142 246 c 1
 88 246 l 1
 142 426 424 443 384 261 c 1
 332 66 l 2
 326 44 337 27 360 27 c 0
 384 27 405 43 410 65 c 1
 485 338 l 1
 529 379 l 1
 542 386 566 396 556 359 c 0
 556 358 480 76 480 76 c 1
145 25 m 0
 191 25 209 93 163 93 c 0
 117 93 99 25 145 25 c 0
EndSplineSet
EndChar
StartChar: quoteleft
Encoding: 145 8216 113
Width: 217
Flags: HW
HStem: 294 90
Fore
252 341 m 0
 245 312 221 294 193 294 c 0
 150 294 146 328 156 364 c 0
 169 415 226 464 269 476 c 1
 273 458 l 1
 235 443 202 405 196 383 c 0
 195 381 194 377 196 378 c 0
 205 382 209 383 221 383 c 0
 244 383 259 367 252 341 c 0
EndSplineSet
EndChar
StartChar: quoteright
Encoding: 146 8217 114
Width: 217
Flags: HW
HStem: 386 90
Fore
267 406 m 0
 253 355 196 306 154 294 c 1
 150 312 l 1
 188 327 221 365 227 387 c 0
 227 389 228 393 226 392 c 0
 217 388 214 387 202 387 c 0
 179 387 163 403 170 429 c 0
 178 458 202 476 230 476 c 0
 273 476 276 442 267 406 c 0
EndSplineSet
EndChar
StartChar: quotedblleft
Encoding: 147 8220 115
Width: 308
Flags: HW
HStem: 294 90
Fore
368 341 m 0
 368 341 l 0
 361 312 337 294 309 294 c 0
 266 294 262 328 272 364 c 0
 285 415 342 464 385 476 c 1
 389 458 l 1
 351 443 318 405 312 383 c 0
 311 381 310 377 312 378 c 0
 321 382 325 383 337 383 c 0
 360 383 375 367 368 341 c 0
217 341 m 0
 210 312 186 294 158 294 c 0
 115 294 111 328 121 364 c 0
 134 415 191 464 234 476 c 1
 238 458 l 1
 200 443 167 405 161 383 c 0
 160 381 159 377 161 378 c 0
 170 382 174 383 186 383 c 0
 209 383 224 367 217 341 c 0
EndSplineSet
EndChar
StartChar: quotedblright
Encoding: 148 8221 116
Width: 308
Flags: HW
HStem: 384 90
Fore
391 404 m 0
 391 404 l 0
 378 353 320 304 278 292 c 1
 274 310 l 1
 312 325 345 363 351 385 c 0
 352 387 353 391 350 390 c 0
 341 386 338 385 326 385 c 0
 303 385 287 401 294 427 c 0
 302 456 326 474 354 474 c 0
 397 474 401 440 391 404 c 0
240 404 m 0
 227 353 169 304 127 292 c 1
 123 310 l 1
 161 325 194 363 200 385 c 0
 201 387 202 391 199 390 c 0
 190 386 187 385 175 385 c 0
 152 385 136 401 143 427 c 0
 151 456 175 474 203 474 c 0
 246 474 250 440 240 404 c 0
EndSplineSet
EndChar
StartChar: bullet
Encoding: 149 8226 117
Width: 251
Flags: HW
HStem: 115 186<180.5 182.5>
Fore
274 208 m 0
 260 157 209 115 156 115 c 0
 106 115 75 157 89 208 c 1
 101 259 155 301 206 301 c 0
 259 301 287 259 274 208 c 0
EndSplineSet
EndChar
StartChar: endash
Encoding: 150 8211 118
Width: 500
Flags: HW
HStem: 131 42
Fore
521 131 m 1
 49 131 l 1
 62 178 l 1
 534 178 l 1
 521 131 l 1
EndSplineSet
EndChar
StartChar: emdash
Encoding: 151 8212 119
Width: 1000
Flags: HW
HStem: 131 42
Fore
1029 131 m 1
 41 131 l 1
 54 178 l 1
 1042 178 l 1
 1029 131 l 1
EndSplineSet
EndChar
StartChar: uni0E31.left
Encoding: 152 63248 120
Width: 0
Flags: HW
HStem: 575 30
Fore
221 601 m 1
 221 601 l 0
 165 480 31 440 -65 440 c 0
 -142 440 -203 479 -187 536 c 0
 -177 574 -138 605 -100 605 c 0
 -59 605 -39 576 -49 538 c 0
 -56 512 -75 491 -105 480 c 1
 -29 458 97 485 155 601 c 1
 221 601 l 1
-127 505 m 0
 -81 505 -62 573 -108 573 c 0
 -154 573 -173 505 -127 505 c 0
EndSplineSet
EndChar
StartChar: uni0E4D.left
Encoding: 153 63249 121
Width: 0
Flags: HW
HStem: 438 30 536 42
Fore
-102 438 m 0
 -102 438 l 0
 -196 438 -158 578 -64 578 c 0
 29 578 -9 438 -102 438 c 0
-92 473 m 0
 -46 473 -28 541 -74 541 c 0
 -120 541 -138 473 -92 473 c 0
EndSplineSet
EndChar
StartChar: uni0E47.left
Encoding: 154 63250 122
Width: 0
Flags: HW
Fore
34 656 m 1
 34 656 l 0
 13 584 -42 568 -88 570 c 0
 -110 571 -149 577 -174 578 c 0
 -212 581 -244 537 -231 487 c 1
 -200 529 -153 506 -138 483 c 1
 -138 483 -130 477 -128 486 c 0
 -108 558 2 560 -18 484 c 0
 -29 445 -66 427 -91 427 c 0
 -143 427 -159 477 -195 477 c 0
 -222 477 -227 447 -214 427 c 1
 -258 428 l 1
 -316 495 -257 622 -163 612 c 0
 -143 610 -104 606 -85 604 c 0
 -70 602 -33 604 -25 656 c 1
 34 656 l 1
-45 484 m 0
 -35 522 -92 522 -102 484 c 0
 -112 446 -55 446 -45 484 c 0
EndSplineSet
EndChar
StartChar: uni0E48.left
Encoding: 155 63251 123
Width: 0
Flags: HW
Fore
58 799 m 1
 13 665 l 1
 -37 665 l 1
 -10 799 l 1
 58 799 l 1
EndSplineSet
EndChar
StartChar: uni0E49.left
Encoding: 156 63252 124
Width: 0
Flags: HW
HStem: 770 30
Fore
179 800 m 1
 179 800 l 0
 111 623 -60 645 -90 647 c 1
 -83 670 l 1
 -57 673 -43 685 -34 697 c 1
 -34 699 l 1
 -34 699 -40 697 -49 698 c 0
 -107 707 -81 800 -11 800 c 0
 45 800 32 750 32 749 c 0
 19 701 -12 679 -12 679 c 1
 -13 677 l 1
 -13 677 94 686 121 800 c 1
 179 800 l 1
-33 722 m 0
 3 722 17 773 -19 773 c 0
 -53 773 -67 722 -33 722 c 0
EndSplineSet
EndChar
StartChar: uni0E4A.left
Encoding: 157 63253 125
Width: 0
Flags: HW
HStem: 642 20 709 20
Fore
176 798 m 1
 176 798 l 0
 160 715 88 642 -3 642 c 1
 3 665 l 1
 56 689 61 755 36 765 c 1
 -7 740 l 1
 -40 767 l 1
 -62 763 -78 736 -80 721 c 1
 -78 719 l 1
 -78 719 -67 732 -45 732 c 0
 -19 732 -4 715 -12 688 c 0
 -19 660 -42 642 -69 642 c 0
 -111 642 -126 679 -113 726 c 0
 -106 755 -69 799 -28 802 c 1
 1 770 l 1
 48 802 l 1
 113 782 92 718 63 687 c 1
 65 686 l 1
 96 703 126 743 128 798 c 1
 176 798 l 1
-63 665 m 0
 -33 665 -21 709 -51 709 c 0
 -80 709 -92 665 -63 665 c 0
EndSplineSet
EndChar
StartChar: uni0E4B.left
Encoding: 158 63254 126
Width: 0
Flags: HW
Fore
81 700 m 1
 19 699 l 1
 5 648 l 1
 -43 648 l 1
 -31 699 l 1
 -91 700 l 1
 -79 748 l 1
 -17 749 l 1
 -5 800 l 1
 47 800 l 1
 33 749 l 1
 93 748 l 1
 81 700 l 1
EndSplineSet
EndChar
StartChar: uni0E4C.left
Encoding: 159 63255 127
Width: 0
Flags: HW
HStem: 603 30
Fore
137 782 m 1
 137 782 l 0
 103 719 27 707 10 703 c 1
 10 701 l 1
 26 700 38 683 31 656 c 0
 23 626 -6 603 -39 603 c 0
 -75 603 -90 630 -82 660 c 0
 -75 686 -47 720 15 731 c 0
 46 737 73 759 89 796 c 1
 137 782 l 1
-32 630 m 0
 2 630 16 684 -18 684 c 0
 -55 684 -69 630 -32 630 c 0
EndSplineSet
EndChar
StartChar: uni0E01
Encoding: 161 3585 129
Width: 392
Flags: HW
HStem: 0 20 245 30
Fore
333 0 m 1
 267 0 l 1
 337 260 l 2
 369 379 193 386 132 275 c 1
 254 275 l 1
 246 246 l 1
 231 246 214 246 214 246 c 2
 196 246 184 231 179 212 c 2
 122 0 l 1
 54 0 l 1
 109 205 l 2
 113 219 128 243 142 246 c 1
 88 246 l 1
 142 424 441 444 403 263 c 1
 333 0 l 1
EndSplineSet
EndChar
StartChar: uni0E02
Encoding: 162 3586 130
Width: 381
Flags: HW
HStem: -5 30<235 246.5> 197 20<115.5 158.5> 284 20
Fore
343 77 m 1
 343 77 l 0
 330 30 290 -5 233 -5 c 0
 181 -5 154 31 167 77 c 1
 228 307 l 2
 244 367 138 377 116 284 c 1
 130 300 146 304 160 304 c 0
 195 304 210 280 202 250 c 0
 194 221 167 194 131 194 c 0
 76 194 73 251 90 298 c 0
 107 348 153 389 215 389 c 0
 280 389 305 343 289 284 c 2
 225 45 l 1
 222 35 229 25 241 25 c 0
 252 25 264 35 267 44 c 1
 348 341 l 1
 391 382 l 1
 405 389 429 399 419 362 c 0
 419 361 343 77 343 77 c 1
137 217 m 0
 180 217 197 281 154 281 c 0
 111 281 94 217 137 217 c 0
EndSplineSet
EndChar
StartChar: uni0E03
Encoding: 163 3587 131
Width: 415
Flags: HW
HStem: -5 20 166 20 258 20<153 159>
Fore
376 77 m 1
 376 77 l 0
 363 30 323 -5 266 -5 c 0
 214 -5 187 33 199 77 c 2
 263 316 l 1
 266 329 265 339 255 342 c 1
 201 299 l 1
 167 349 l 1
 143 335 118 310 111 257 c 1
 126 274 147 278 159 278 c 0
 237 276 206 166 129 166 c 0
 70 166 71 225 84 278 c 0
 92 311 121 364 180 390 c 1
 213 342 l 1
 271 390 l 1
 333 383 337 339 325 296 c 1
 258 45 l 1
 255 35 260 25 274 25 c 0
 287 25 297 35 300 44 c 1
 380 341 l 1
 424 382 l 1
 438 389 462 399 452 362 c 0
 452 361 376 77 376 77 c 1
136 190 m 0
 179 190 196 254 153 254 c 0
 110 254 93 190 136 190 c 0
EndSplineSet
EndChar
StartChar: uni0E04
Encoding: 164 3588 132
Width: 384
Flags: HW
HStem: 0 20 162 30 259 30<215.5 261> 360 30
Fore
326 0 m 1
 260 0 l 1
 328 253 l 1
 344 315 323 356 257 356 c 0
 187 356 132 314 118 261 c 0
 111 235 124 217 130 208 c 1
 132 208 l 1
 156 252 186 289 245 289 c 0
 332 289 300 162 212 162 c 0
 196 162 183 168 177 174 c 1
 171 167 166 152 161 134 c 2
 125 0 l 1
 58 0 l 1
 99 152 l 2
 106 179 69 198 86 261 c 0
 108 342 184 390 265 390 c 0
 355 390 422 358 396 263 c 1
 326 0 l 1
220 191 m 0
 266 191 284 259 238 259 c 0
 192 259 174 191 220 191 c 0
EndSplineSet
EndChar
StartChar: uni0E05
Encoding: 165 3589 133
Width: 385
Flags: HW
HStem: 0 20 142 30 239 30<211.5 257>
Fore
325 0 m 1
 259 0 l 1
 327 252 l 1
 336 289 349 328 318 348 c 1
 247 299 l 1
 203 348 l 1
 180 343 131 309 118 261 c 0
 111 236 119 213 131 192 c 1
 133 192 l 1
 153 225 183 269 240 269 c 0
 327 269 295 142 207 142 c 0
 191 142 179 145 171 154 c 1
 165 147 159 128 157 121 c 2
 125 0 l 1
 58 0 l 1
 98 149 l 2
 104 172 69 198 86 261 c 0
 108 342 173 375 217 389 c 1
 258 339 l 1
 326 388 l 1
 363 378 421 357 393 252 c 2
 325 0 l 1
216 171 m 0
 262 171 280 239 234 239 c 0
 188 239 170 171 216 171 c 0
EndSplineSet
EndChar
StartChar: uni0E06
Encoding: 166 3590 134
Width: 493
Flags: HW
HStem: -5 42 166 20 258 20<153 159>
Fore
431 0 m 0
 375 0 l 0
 355 78 297 99 275 106 c 1
 261 50 244 -5 183 -5 c 0
 85 -5 127 137 217 145 c 1
 263 316 l 1
 266 329 265 339 255 342 c 1
 201 299 l 1
 167 349 l 1
 143 335 118 310 111 257 c 1
 126 274 147 278 159 278 c 0
 237 276 206 166 129 166 c 0
 70 166 71 225 84 278 c 0
 92 311 121 364 180 390 c 1
 213 342 l 1
 271 390 l 1
 333 383 337 339 325 296 c 1
 283 139 l 1
 302 134 355 119 386 78 c 1
 457 338 l 1
 501 379 l 1
 513 387 539 396 527 359 c 0
 527 358 441 37 431 0 c 0
192 52 m 0
 208 113 l 0
 165 108 140 38 180 38 c 0
 185 38 190 43 192 52 c 0
136 190 m 0
 179 190 196 254 153 254 c 0
 110 254 93 190 136 190 c 0
EndSplineSet
EndChar
StartChar: uni0E07
Encoding: 167 3591 135
Width: 312
Flags: HW
HStem: 0 20 257 30<219 239> 357 30
Fore
254 0 m 1
 189 0 l 1
 75 193 l 1
 86 230 l 1
 206 76 l 1
 256 260 l 1
 249 258 242 257 236 257 c 0
 151 257 181 387 276 387 c 0
 364 387 339 319 337 310 c 0
 337 309 254 0 254 0 c 1
242 287 m 0
 288 287 306 355 260 355 c 0
 214 355 196 287 242 287 c 0
EndSplineSet
EndChar
StartChar: uni0E08
Encoding: 168 3592 136
Width: 368
Flags: HW
HStem: -3 30 154 30 251 30<175 205>
Fore
330 79 m 1
 330 79 l 0
 318 32 276 -3 219 -3 c 0
 172 -3 141 35 153 79 c 2
 174 156 l 1
 169 155 163 154 157 154 c 0
 116 154 99 186 112 223 c 0
 124 256 155 281 195 281 c 0
 255 281 265 248 256 213 c 1
 212 49 l 1
 209 39 215 29 228 29 c 0
 242 29 251 39 254 48 c 1
 313 270 l 2
 341 375 188 379 115 280 c 1
 94 293 l 1
 204 444 417 402 381 269 c 2
 330 79 l 1
164 183 m 0
 210 183 228 251 182 251 c 0
 136 251 118 183 164 183 c 0
EndSplineSet
EndChar
StartChar: uni0E09
Encoding: 169 3593 137
Width: 401
Flags: HW
HStem: -5 30 127 30 224 30<142 172>
Fore
379 147 m 0
 379 147 l 0
 374 126 362 120 362 120 c 1
 362 118 l 1
 416 101 386 -5 303 -5 c 0
 254 -5 240 42 267 78 c 1
 208 60 167 13 161 0 c 1
 107 0 l 1
 142 129 l 1
 136 128 130 127 124 127 c 0
 83 127 68 161 79 195 c 0
 90 228 122 254 162 254 c 0
 222 254 232 221 223 186 c 2
 223 186 208 129 200 100 c 0
 196 85 189 71 189 71 c 1
 205 85 245 114 305 119 c 1
 346 274 l 1
 373 372 203 384 123 280 c 1
 102 293 l 1
 204 438 450 412 412 268 c 1
 412 268 380 148 379 147 c 0
131 156 m 0
 131 156 l 0
 177 156 195 224 149 224 c 0
 103 224 85 156 131 156 c 0
311 23 m 0
 357 23 375 91 329 91 c 0
 283 91 265 23 311 23 c 0
EndSplineSet
EndChar
StartChar: uni0E0A
Encoding: 170 3594 138
Width: 380
Flags: HW
HStem: 0 30 197 20<115.5 158.5> 260 30
Fore
464 387 m 1
 464 387 l 0
 433 310 384 283 339 272 c 1
 431 268 373 0 240 0 c 2
 102 0 l 1
 110 29 l 1
 154 29 l 1
 228 306 l 2
 244 366 138 377 116 284 c 1
 130 300 146 304 160 304 c 0
 195 304 210 280 202 250 c 0
 194 221 167 194 131 194 c 0
 76 194 73 251 90 298 c 0
 107 348 153 389 215 389 c 0
 280 389 304 341 291 290 c 1
 340 292 378 346 390 387 c 1
 464 387 l 1
305 251 m 0
 305 251 l 0
 299 255 288 256 281 256 c 1
 220 29 l 1
 239 29 l 2
 291 29 342 220 305 251 c 0
137 217 m 0
 180 217 197 281 154 281 c 0
 111 281 94 217 137 217 c 0
EndSplineSet
EndChar
StartChar: uni0E0B
Encoding: 171 3595 139
Width: 423
Flags: HW
HStem: 0 30 166 20 251 42
Fore
498 387 m 1
 498 387 l 0
 467 310 418 283 373 272 c 1
 465 268 407 0 274 0 c 2
 137 0 l 1
 145 29 l 1
 186 29 l 1
 263 316 l 1
 266 329 265 339 255 342 c 1
 201 299 l 1
 167 349 l 1
 143 335 118 310 111 257 c 1
 126 274 147 278 159 278 c 0
 237 276 206 166 129 166 c 0
 70 166 71 225 84 278 c 0
 92 311 121 364 180 390 c 1
 213 342 l 1
 271 390 l 1
 333 383 337 339 325 296 c 1
 325 293 l 1
 377 295 412 346 424 387 c 1
 498 387 l 1
339 251 m 0
 339 251 l 0
 333 255 322 256 315 256 c 1
 254 29 l 1
 273 29 l 2
 325 29 376 220 339 251 c 0
136 190 m 0
 179 190 196 254 153 254 c 0
 110 254 93 190 136 190 c 0
EndSplineSet
EndChar
StartChar: uni0E0C
Encoding: 172 3596 140
Width: 521
Flags: HW
HStem: -5 30 92 30 245 30
Fore
280 46 m 0
 293 94 l 0
 267 92 246 55 258 38 c 0
 263 32 277 33 280 46 c 0
153 119 m 0
 153 119 l 0
 239 126 213 -4 125 -4 c 0
 64 -4 67 50 75 79 c 2
 109 205 l 2
 113 219 128 243 142 246 c 1
 88 246 l 1
 142 425 442 444 403 262 c 1
 365 120 l 1
 376 117 411 109 426 86 c 1
 495 338 l 1
 539 379 l 1
 552 386 576 396 566 359 c 0
 566 358 480 37 470 0 c 1
 416 0 l 1
 427 51 385 84 357 88 c 1
 342 34 327 -5 271 -5 c 0
 186 -5 222 119 300 124 c 1
 337 263 l 1
 368 377 193 387 132 275 c 1
 254 275 l 1
 246 246 l 1
 231 246 213 246 213 246 c 2
 195 246 183 231 178 212 c 2
 178 212 161 149 153 119 c 0
130 24 m 0
 176 24 195 92 149 92 c 0
 103 92 84 24 130 24 c 0
EndSplineSet
EndChar
StartChar: uni0E0D
Encoding: 173 3597 141
Width: 521
Flags: HW
HStem: -5 30 245 30
Fore
480 76 m 1
 480 76 l 0
 471 40 415 -5 352 -5 c 0
 291 -5 256 35 269 81 c 1
 317 261 l 2
 348 378 194 388 131 275 c 1
 254 275 l 1
 246 246 l 1
 231 246 213 246 213 246 c 2
 195 246 183 231 178 212 c 2
 153 119 l 1
 256 142 234 2 137 -3 c 0
 67 -6 68 52 76 81 c 2
 109 205 l 2
 113 219 128 243 142 246 c 1
 88 246 l 1
 142 426 424 443 384 261 c 1
 332 66 l 2
 326 44 337 27 360 27 c 0
 384 27 405 43 410 65 c 1
 485 338 l 1
 529 379 l 1
 542 386 566 396 556 359 c 0
 556 358 480 76 480 76 c 1
441 -71 m 1
 441 -71 l 0
 411 -184 196 -197 229 -73 c 0
 235 -54 258 -20 301 -20 c 0
 336 -20 345 -45 338 -72 c 0
 331 -96 304 -119 278 -115 c 1
 277 -118 l 1
 307 -143 366 -119 378 -74 c 2
 390 -28 l 1
 452 -28 l 1
 441 -71 l 1
319 -69 m 0
 319 -69 l 0
 329 -31 270 -31 260 -69 c 0
 249 -109 308 -109 319 -69 c 0
145 25 m 0
 191 25 209 93 163 93 c 0
 117 93 99 25 145 25 c 0
EndSplineSet
EndChar
StartChar: uni0E0E
Encoding: 174 3598 142
Width: 399
Flags: HW
HStem: -3 30 93 30 245 30
Fore
298 -157 m 1
 243 -157 l 0
 235 -119 207 -95 175 -77 c 1
 126 -169 4 -164 25 -86 c 0
 37 -40 98 -10 168 -33 c 1
 189 -3 205 4 216 10 c 1
 243 -6 l 1
 225 -14 210 -27 197 -46 c 1
 215 -52 241 -68 253 -83 c 1
 253 -83 255 -66 260 -50 c 1
 345 269 l 2
 374 378 198 384 141 275 c 1
 263 275 l 1
 255 246 l 1
 221 246 l 2
 203 246 188 225 183 207 c 2
 144 60 l 2
 133 19 99 -3 64 -3 c 0
 -18 -3 14 119 95 122 c 1
 115 198 l 2
 119 214 136 243 150 246 c 1
 97 246 l 1
 151 424 448 444 411 265 c 1
 298 -157 l 1
148 -65 m 1
 148 -65 l 0
 108 -53 67 -56 58 -88 c 0
 50 -119 111 -126 144 -71 c 2
 148 -65 l 1
72 25 m 0
 118 25 136 93 90 93 c 0
 44 93 26 25 72 25 c 0
EndSplineSet
EndChar
StartChar: uni0E0F
Encoding: 175 3599 143
Width: 399
Flags: HW
HStem: -5 30 92 30 245 30
Fore
298 -156 m 1
 244 -156 l 0
 243 -91 182 -79 134 -156 c 1
 106 -156 l 1
 107 -135 98 -112 88 -100 c 1
 44 -183 -63 -167 -44 -98 c 0
 -27 -35 44 -16 88 -48 c 1
 101 -29 124 -13 152 -3 c 1
 167 -28 l 1
 147 -33 122 -49 110 -68 c 1
 122 -75 130 -96 134 -110 c 1
 164 -67 220 -51 252 -80 c 1
 345 269 l 2
 374 378 198 384 141 275 c 1
 263 275 l 1
 255 246 l 1
 221 246 l 2
 203 246 188 225 183 207 c 2
 144 60 l 2
 133 19 99 -5 64 -5 c 0
 -18 -5 12 119 94 122 c 1
 114 198 l 2
 118 214 136 243 150 246 c 1
 97 246 l 1
 151 424 448 444 411 265 c 1
 298 -156 l 1
67 -78 m 0
 67 -78 l 0
 34 -50 -5 -71 -12 -96 c 0
 -21 -130 37 -140 67 -78 c 0
71 24 m 0
 117 24 136 92 90 92 c 0
 44 92 25 24 71 24 c 0
EndSplineSet
EndChar
StartChar: uni0E10
Encoding: 176 3600 144
Width: 331
Flags: HW
HStem: -188 30 -157 30 -48 30 -3 30 203 30
Fore
385 363 m 0
 385 363 l 0
 308 245 201 408 139 311 c 1
 304 265 l 2
 313 262 343 257 332 218 c 1
 292 69 l 1
 280 22 246 -3 190 -3 c 0
 143 -3 115 25 126 69 c 1
 137 110 l 1
 131 109 126 108 120 108 c 0
 80 108 65 140 75 175 c 1
 87 208 116 233 153 233 c 0
 212 234 229 204 219 168 c 2
 187 49 l 1
 185 40 187 29 199 29 c 0
 211 29 219 40 221 48 c 2
 266 217 l 2
 270 233 266 239 259 241 c 2
 89 290 l 1
 107 321 151 391 227 389 c 0
 269 389 337 347 374 381 c 0
 385 391 403 390 385 363 c 0
235 -142 m 1
 235 -142 l 0
 230 -162 214 -188 181 -188 c 2
 62 -188 l 1
 73 -147 l 2
 77 -132 82 -116 78 -108 c 1
 69 -137 45 -158 13 -158 c 0
 -12 -158 -27 -145 -27 -119 c 0
 -27 -86 16 -41 63 -55 c 1
 67 -46 70 -38 78 -30 c 1
 108 -34 l 1
 97 -43 91 -57 89 -69 c 1
 124 -87 106 -141 102 -157 c 1
 162 -157 l 2
 173 -157 178 -139 180 -128 c 1
 174 -130 l 2
 170 -132 164 -132 156 -131 c 0
 92 -125 122 -22 194 -22 c 0
 239 -22 256 -44 250 -84 c 1
 235 -142 l 1
173 -108 m 0
 173 -108 l 0
 211 -108 227 -48 189 -48 c 0
 147 -48 131 -108 173 -108 c 0
57 -81 m 0
 57 -81 l 0
 41 -76 9 -81 3 -106 c 0
 -1 -119 4 -131 20 -131 c 0
 40 -131 57 -104 57 -81 c 0
128 137 m 0
 174 137 192 205 146 205 c 0
 100 205 82 137 128 137 c 0
EndSplineSet
KernsSLIF: 212 20 1 0 215 20 1 0 214 20 1 0 213 20 1 0
EndChar
StartChar: uni0E11
Encoding: 177 3601 145
Width: 508
Flags: HW
HStem: 0 20 166 20 258 20<153 159>
Fore
447 0 m 1
 380 0 l 1
 463 308 l 1
 469 334 441 344 418 306 c 2
 233 0 l 1
 179 0 l 1
 264 316 l 1
 267 329 265 339 255 342 c 1
 201 299 l 1
 167 349 l 1
 143 335 118 310 111 257 c 1
 126 274 147 278 159 278 c 0
 237 276 206 166 129 166 c 0
 70 166 71 225 84 278 c 0
 92 311 121 364 180 390 c 1
 213 342 l 1
 271 390 l 1
 333 383 336 339 324 296 c 1
 293 178 l 2
 288 160 281 147 277 134 c 1
 280 133 l 1
 280 133 294 161 303 175 c 2
 390 319 l 2
 452 420 555 403 531 314 c 2
 447 0 l 1
136 190 m 0
 179 190 196 254 153 254 c 0
 110 254 93 190 136 190 c 0
EndSplineSet
EndChar
StartChar: uni0E12
Encoding: 178 3602 146
Width: 520
Flags: HW
HStem: -5 129 245 30
Fore
462 0 m 0
 408 0 l 0
 419 51 377 84 349 88 c 1
 334 34 319 -5 263 -5 c 0
 178 -5 214 119 292 124 c 1
 329 261 l 2
 343 314 339 333 318 348 c 1
 247 299 l 1
 203 348 l 1
 178 341 132 310 119 262 c 0
 101 195 143 148 141 107 c 1
 169 139 211 153 204 153 c 0
 166 153 154 183 163 215 c 0
 165 224 185 275 240 275 c 0
 294 275 311 226 267 171 c 0
 229 123 156 95 136 42 c 1
 125 0 l 1
 58 0 l 1
 77 71 l 1
 86 103 62 170 83 250 c 0
 109 348 182 378 217 389 c 1
 258 339 l 1
 327 389 l 1
 366 378 419 351 394 258 c 2
 357 120 l 1
 368 117 403 109 418 86 c 1
 487 338 l 1
 531 379 l 1
 544 386 568 396 558 359 c 0
 558 358 472 37 462 0 c 0
271 44 m 0
 284 95 l 0
 257 93 234 54 248 36 c 0
 253 29 267 30 271 44 c 0
215 179 m 0
 261 179 279 247 233 247 c 0
 187 247 169 179 215 179 c 0
EndSplineSet
EndChar
StartChar: uni0E13
Encoding: 179 3603 147
Width: 521
Flags: HW
HStem: -6 30 245 30
Fore
495 132 m 0
 495 132 l 0
 494 126 487 114 481 110 c 1
 531 91 499 -6 425 -6 c 0
 393 -6 376 11 378 40 c 0
 378 54 384 72 399 85 c 1
 352 66 320 15 312 0 c 1
 247 0 l 1
 317 261 l 2
 348 378 194 388 131 275 c 1
 254 275 l 1
 246 246 l 1
 231 246 213 246 213 246 c 2
 195 246 183 231 178 212 c 2
 153 119 l 1
 256 142 233 1 137 -4 c 0
 67 -7 68 52 76 81 c 2
 109 205 l 2
 113 219 128 243 142 246 c 1
 88 246 l 1
 142 426 424 443 384 261 c 1
 336 82 l 1
 354 96 387 120 425 119 c 1
 485 340 l 1
 529 381 l 1
 543 388 567 398 557 361 c 0
 556 360 498 140 495 132 c 0
433 22 m 0
 433 22 l 0
 476 22 493 86 450 86 c 0
 407 86 390 22 433 22 c 0
145 25 m 0
 191 25 209 93 163 93 c 0
 117 93 99 25 145 25 c 0
EndSplineSet
KernsSLIF: 212 -10 1 0 215 -10 1 0 214 -10 1 0 213 -10 1 0
EndChar
StartChar: uni0E14
Encoding: 180 3604 148
Width: 396
Flags: HW
HStem: 0 20 263 30 359 30
Fore
338 0 m 1
 272 0 l 1
 344 268 l 2
 354 306 344 357 277 357 c 0
 198 357 143 317 128 260 c 0
 114 210 144 156 147 106 c 1
 176 138 226 171 219 171 c 0
 181 171 168 201 176 233 c 0
 179 242 200 293 255 293 c 0
 309 293 324 244 281 189 c 0
 243 141 154 75 143 42 c 1
 132 0 l 1
 66 0 l 1
 82 61 l 1
 97 115 72 176 92 250 c 0
 125 374 235 389 285 389 c 0
 364 389 433 355 410 268 c 1
 338 0 l 1
230 197 m 0
 276 197 294 265 248 265 c 0
 202 265 184 197 230 197 c 0
EndSplineSet
EndChar
StartChar: uni0E15
Encoding: 181 3605 149
Width: 398
Flags: HW
HStem: 0 20 245 30
Fore
338 0 m 1
 272 0 l 1
 342 261 l 2
 356 314 352 333 331 348 c 1
 256 299 l 1
 212 348 l 1
 187 341 141 310 128 262 c 0
 113 205 152 146 150 105 c 1
 179 137 220 153 213 153 c 0
 175 153 163 183 172 215 c 0
 174 224 194 275 249 275 c 0
 303 275 320 226 276 171 c 0
 238 123 165 95 145 42 c 1
 134 0 l 1
 67 0 l 1
 83 61 l 2
 100 125 69 166 92 250 c 0
 118 348 191 378 226 389 c 1
 267 339 l 1
 340 389 l 1
 379 378 432 351 407 258 c 2
 338 0 l 1
224 179 m 0
 270 179 288 247 242 247 c 0
 196 247 178 179 224 179 c 0
EndSplineSet
EndChar
StartChar: uni0E16
Encoding: 182 3606 150
Width: 392
Flags: HW
HStem: -4 30 245 30
Fore
333 0 m 1
 267 0 l 1
 337 263 l 1
 368 377 193 387 132 275 c 1
 254 275 l 1
 246 246 l 1
 231 246 213 246 213 246 c 2
 195 246 183 231 178 212 c 2
 178 212 161 149 153 119 c 1
 247 138 227 1 135 -4 c 0
 65 -8 67 50 75 79 c 2
 109 205 l 2
 113 219 128 243 142 246 c 1
 88 246 l 1
 142 425 442 444 403 262 c 1
 333 0 l 1
140 24 m 0
 186 24 205 92 159 92 c 0
 113 92 94 24 140 24 c 0
EndSplineSet
EndChar
StartChar: uni0E17
Encoding: 183 3607 151
Width: 427
Flags: HW
HStem: 0 20 257 30 358 30
Fore
368 0 m 1
 301 0 l 1
 384 308 l 1
 390 334 362 344 339 306 c 2
 154 0 l 1
 100 0 l 1
 170 260 l 1
 162 257 157 256 150 256 c 0
 62 256 93 388 189 388 c 0
 276 388 252 320 250 312 c 2
 214 178 l 2
 209 160 202 147 198 134 c 1
 201 133 l 1
 201 133 215 161 224 175 c 2
 311 319 l 2
 374 423 476 403 452 314 c 2
 368 0 l 1
157 287 m 0
 203 287 221 355 175 355 c 0
 129 355 111 287 157 287 c 0
EndSplineSet
EndChar
StartChar: uni0E18
Encoding: 184 3608 152
Width: 331
Flags: HW
HStem: 0 30
Fore
384 363 m 0
 307 245 200 408 138 311 c 1
 303 265 l 2
 312 262 342 257 331 218 c 1
 294 78 l 2
 280 25 246 0 199 0 c 2
 26 0 l 1
 34 29 l 1
 63 29 l 1
 119 237 l 1
 186 237 l 1
 130 29 l 1
 171 29 l 2
 200 29 218 40 225 66 c 2
 265 217 l 2
 269 233 265 239 258 241 c 2
 88 290 l 1
 106 321 150 391 226 389 c 0
 268 389 336 347 373 381 c 0
 384 391 402 390 384 363 c 0
EndSplineSet
EndChar
StartChar: uni0E19
Encoding: 185 3609 153
Width: 432
Flags: HW
HStem: -5 30<335 356.5> 86 30 258 30<169 169> 359 30
Fore
401 139 m 0
 401 139 l 0
 400 134 392 123 386 119 c 1
 440 97 404 -5 327 -5 c 0
 270 -5 264 52 295 86 c 1
 222 81 166 22 153 0 c 1
 100 0 l 1
 169 258 l 1
 162 256 156 256 149 256 c 0
 61 254 93 389 188 389 c 0
 276 389 252 321 250 313 c 0
 250 312 212 172 192 96 c 0
 190 88 186 80 183 72 c 1
 218 99 256 120 329 121 c 1
 390 342 l 1
 435 384 l 1
 445 390 471 401 461 363 c 2
 461 363 403 146 401 139 c 0
335 25 m 0
 335 25 l 0
 378 25 395 89 352 89 c 0
 309 89 292 25 335 25 c 0
156 288 m 0
 202 288 220 356 174 356 c 0
 128 356 110 288 156 288 c 0
EndSplineSet
KernsSLIF: 212 -30 1 0 215 -30 1 0 214 -30 1 0 213 -30 1 0
EndChar
StartChar: uni0E1A
Encoding: 186 3610 154
Width: 423
Flags: HW
HStem: 0 30 258 30<169 169> 359 30
Fore
384 78 m 0
 384 78 l 0
 378 48 346 0 287 0 c 2
 64 0 l 1
 72 29 l 1
 108 29 l 1
 169 258 l 1
 162 257 155 256 150 256 c 0
 60 256 94 389 189 389 c 0
 276 389 252 320 250 312 c 0
 249 311 186 76 174 29 c 1
 268 29 l 2
 286 29 309 41 314 69 c 1
 388 341 l 1
 433 382 l 1
 447 390 472 399 460 362 c 0
 460 361 389 97 384 78 c 0
156 288 m 0
 202 288 220 356 174 356 c 0
 128 356 110 288 156 288 c 0
EndSplineSet
EndChar
StartChar: uni0E1B
Encoding: 187 3611 155
Width: 433
Flags: HW
HStem: 0 30 256 30 359 30
Fore
394 78 m 0
 394 78 l 0
 388 48 356 0 297 0 c 2
 64 0 l 1
 72 29 l 1
 108 29 l 1
 169 258 l 1
 162 257 155 256 150 256 c 0
 60 256 94 389 189 389 c 0
 276 389 252 320 250 312 c 0
 249 311 186 76 174 29 c 1
 278 29 l 2
 296 29 319 41 324 69 c 1
 465 588 l 1
 510 629 l 1
 524 637 548 646 536 609 c 0
 536 608 399 97 394 78 c 0
156 288 m 0
 202 288 220 356 174 356 c 0
 128 356 110 288 156 288 c 0
EndSplineSet
EndChar
StartChar: uni0E1C
Encoding: 188 3612 156
Width: 423
Flags: HW
HStem: 0 20 359 30
Fore
363 0 m 1
 296 0 l 1
 302 22 l 2
 305 34 300 39 301 43 c 1
 261 187 l 1
 138 43 l 2
 135 39 129 35 126 22 c 1
 120 0 l 1
 52 0 l 1
 135 311 l 1
 146 351 174 389 239 389 c 0
 333 389 291 242 188 260 c 1
 188 260 157 145 151 122 c 0
 146 106 137 84 137 84 c 1
 137 84 156 110 164 119 c 0
 260 228 278 249 278 249 c 1
 278 249 284 228 317 122 c 0
 320 112 323 86 323 86 c 1
 323 86 325 108 329 124 c 0
 335 147 388 340 388 340 c 1
 433 381 l 1
 447 389 472 398 460 361 c 0
 459 360 363 0 363 0 c 1
213 290 m 0
 259 290 277 358 231 358 c 0
 185 358 167 290 213 290 c 0
EndSplineSet
EndChar
StartChar: uni0E1D
Encoding: 189 3613 157
Width: 431
Flags: HW
HStem: 0 20 359 30
Fore
373 0 m 1
 306 0 l 1
 312 22 l 2
 315 34 310 39 311 43 c 1
 267 192 l 1
 138 43 l 2
 135 39 129 35 126 22 c 1
 120 0 l 1
 52 0 l 1
 135 311 l 1
 146 351 174 389 239 389 c 0
 333 389 291 242 188 260 c 1
 188 260 157 145 151 122 c 0
 146 106 137 84 137 84 c 1
 137 84 156 110 164 119 c 0
 260 228 284 254 284 254 c 1
 284 254 294 228 327 122 c 0
 330 112 333 86 333 86 c 1
 333 86 335 108 339 124 c 0
 345 147 463 582 463 582 c 1
 508 623 l 1
 522 631 546 640 535 603 c 0
 534 602 373 0 373 0 c 1
213 290 m 0
 259 290 277 358 231 358 c 0
 185 358 167 290 213 290 c 0
EndSplineSet
EndChar
StartChar: uni0E1E
Encoding: 190 3614 158
Width: 471
Flags: HW
HStem: 0 105 257 30<170 170> 357 30
VStem: 341 70
Fore
411 0 m 1
 348 0 l 1
 335 293 l 1
 163 0 l 1
 101 0 l 1
 170 257 l 1
 163 256 155 255 150 255 c 0
 61 255 94 387 190 387 c 0
 277 387 253 320 251 312 c 0
 250 311 211 165 211 165 c 2
 206 147 189 104 189 104 c 1
 193 104 l 1
 193 104 210 141 221 162 c 1
 355 383 l 1
 363 383 l 1
 377 162 l 1
 378 141 375 104 375 104 c 1
 379 104 l 1
 379 104 384 147 389 165 c 2
 438 344 l 1
 483 385 l 1
 497 393 521 403 509 365 c 0
 509 364 411 0 411 0 c 1
157 287 m 0
 203 287 221 355 175 355 c 0
 129 355 111 287 157 287 c 0
EndSplineSet
EndChar
StartChar: uni0E1F
Encoding: 191 3615 159
Width: 471
Flags: HW
HStem: 0 105 255 30 357 30
VStem: 341 70
Fore
411 0 m 1
 348 0 l 1
 335 293 l 1
 163 0 l 1
 101 0 l 1
 170 257 l 1
 163 256 155 255 150 255 c 0
 61 255 94 387 190 387 c 0
 277 387 253 320 251 312 c 0
 250 311 211 165 211 165 c 2
 206 147 189 104 189 104 c 1
 193 104 l 1
 193 104 210 141 221 162 c 1
 355 383 l 1
 363 383 l 1
 377 162 l 1
 378 141 375 104 375 104 c 1
 379 104 l 1
 379 104 384 147 389 165 c 2
 502 582 l 1
 547 623 l 1
 561 631 585 641 573 603 c 0
 572 602 411 0 411 0 c 1
157 287 m 0
 203 287 221 355 175 355 c 0
 129 355 111 287 157 287 c 0
EndSplineSet
EndChar
StartChar: uni0E20
Encoding: 192 3616 160
Width: 402
Flags: HW
HStem: -5 30 92 30 245 30
Fore
344 0 m 1
 277 0 l 1
 349 269 l 2
 378 378 202 384 145 275 c 1
 267 275 l 1
 259 246 l 1
 225 246 l 2
 207 246 192 225 187 207 c 2
 148 60 l 2
 137 19 103 -5 68 -5 c 0
 -14 -5 16 119 98 122 c 1
 118 198 l 2
 122 214 140 243 154 246 c 1
 101 246 l 1
 155 424 452 444 415 265 c 1
 344 0 l 1
75 24 m 0
 121 24 140 92 94 92 c 0
 48 92 29 24 75 24 c 0
EndSplineSet
EndChar
StartChar: uni0E21
Encoding: 193 3617 161
Width: 425
Flags: HW
HStem: -5 20 122 30 257 30<169 169> 357 30
Fore
367 0 m 0
 306 0 l 0
 293 52 268 92 197 115 c 1
 190 90 185 68 179 51 c 0
 163 14 142 -5 103 -5 c 0
 1 -6 45 145 141 152 c 1
 169 257 l 1
 162 256 154 255 149 255 c 0
 61 255 93 387 189 387 c 0
 276 387 252 320 250 312 c 0
 249 311 214 179 205 146 c 1
 238 140 293 114 321 74 c 1
 392 341 l 1
 439 383 l 2
 448 390 476 401 464 362 c 0
 464 361 377 37 367 0 c 0
113 49 m 0
 133 122 l 0
 96 121 57 64 87 38 c 1
 93 34 109 34 113 49 c 0
156 287 m 0
 202 287 220 355 174 355 c 0
 128 355 110 287 156 287 c 0
EndSplineSet
EndChar
StartChar: uni0E22
Encoding: 194 3618 162
Width: 393
Flags: HW
HStem: -5 30<178.5 220> 183 30 260 30 359 30
Fore
363 113 m 1
 363 113 l 0
 344 42 281 -5 189 -5 c 0
 104 -5 57 32 76 106 c 1
 76 106 80 121 81 122 c 0
 93 167 124 188 145 199 c 1
 131 207 109 227 122 276 c 0
 130 306 124 285 127 294 c 0
 139 339 168 389 239 389 c 0
 327 389 294 259 207 259 c 0
 199 259 190 260 184 265 c 1
 175 233 185 213 212 213 c 2
 238 213 l 1
 230 184 l 1
 204 184 l 2
 181 184 160 168 150 132 c 1
 137 81 l 2
 127 43 159 25 198 25 c 0
 242 25 279 46 289 82 c 0
 290 85 356 325 361 342 c 1
 403 384 l 1
 414 392 442 401 430 362 c 1
 363 113 l 1
213 290 m 0
 259 290 277 358 231 358 c 0
 185 358 167 290 213 290 c 0
EndSplineSet
EndChar
StartChar: uni0E23
Encoding: 195 3619 163
Width: 292
Flags: HW
HStem: -2 30 98 30
Fore
367 364 m 0
 367 364 l 0
 332 305 275 325 264 329 c 0
 196 354 166 351 137 311 c 1
 268 275 l 2
 289 269 301 256 293 228 c 1
 252 74 l 1
 249 65 238 -2 149 -2 c 0
 53 -2 96 131 182 130 c 0
 188 130 195 129 200 127 c 1
 227 228 l 2
 230 240 231 249 219 252 c 2
 88 290 l 1
 108 325 152 389 223 389 c 0
 270 389 326 352 350 377 c 0
 365 393 380 390 367 364 c 0
155 30 m 0
 201 30 219 98 173 98 c 0
 127 98 109 30 155 30 c 0
EndSplineSet
KernsSLIF: 212 20 1 0 215 20 1 0 214 20 1 0 213 20 1 0
EndChar
StartChar: uni0E24
Encoding: 196 3620 164
Width: 390
Flags: HW
HStem: -4 30 245 30
Fore
401 262 m 0
 301 -110 l 1
 254 -152 l 1
 240 -160 217 -169 229 -132 c 1
 232 -118 334 263 334 263 c 1
 365 377 191 387 130 275 c 1
 252 275 l 1
 244 246 l 1
 229 246 211 246 211 246 c 2
 193 246 181 231 176 212 c 2
 176 212 159 149 151 119 c 1
 245 138 225 1 133 -4 c 0
 63 -8 65 50 73 79 c 2
 107 205 l 2
 111 219 126 243 140 246 c 1
 86 246 l 1
 140 425 440 444 401 262 c 0
137 24 m 0
 183 24 202 92 156 92 c 0
 110 92 91 24 137 24 c 0
EndSplineSet
EndChar
StartChar: uni0E25
Encoding: 197 3621 165
Width: 377
Flags: HW
HStem: -3 30 250 30
Fore
318 0 m 1
 252 0 l 1
 301 184 l 2
 309 214 286 245 247 245 c 0
 205 245 171 214 162 180 c 2
 147 122 l 1
 251 144 226 2 130 -3 c 0
 67 -5 60 48 68 78 c 2
 93 173 l 1
 108 228 170 280 242 280 c 0
 283 280 308 267 319 247 c 1
 322 256 325 267 327 275 c 0
 352 370 202 382 119 280 c 1
 99 293 l 1
 224 450 424 395 390 269 c 2
 318 0 l 1
136 27 m 0
 182 27 200 95 154 95 c 0
 108 95 90 27 136 27 c 0
EndSplineSet
EndChar
StartChar: uni0E26
Encoding: 198 3622 166
Width: 399
Flags: HW
HStem: -5 30 92 30 245 30
Fore
411 265 m 0
 310 -110 l 1
 263 -152 l 1
 249 -160 226 -169 238 -132 c 1
 241 -118 345 269 345 269 c 2
 374 378 198 384 141 275 c 1
 263 275 l 1
 255 246 l 1
 221 246 l 2
 203 246 188 225 183 207 c 2
 142 54 l 2
 131 13 99 -5 64 -5 c 0
 -18 -5 12 119 94 122 c 1
 114 198 l 2
 118 214 136 243 150 246 c 1
 97 246 l 1
 151 424 448 444 411 265 c 0
71 24 m 0
 117 24 136 92 90 92 c 0
 44 92 25 24 71 24 c 0
EndSplineSet
EndChar
StartChar: uni0E27
Encoding: 199 3623 167
Width: 327
Flags: HW
HStem: -3 30 94 30<213 218>
Fore
292 85 m 1
 292 85 l 0
 277 30 246 -3 179 -3 c 0
 145 -3 125 24 134 58 c 0
 142 93 173 123 213 124 c 0
 223 124 229 123 234 121 c 1
 279 287 l 2
 301 368 173 382 105 284 c 1
 83 298 l 1
 174 438 378 405 342 274 c 1
 292 85 l 1
190 26 m 0
 236 26 254 94 208 94 c 0
 162 94 144 26 190 26 c 0
EndSplineSet
EndChar
StartChar: uni0E28
Encoding: 200 3624 168
Width: 384
Flags: HW
HStem: 0 20 162 30 259 30<213.5 256> 360 30
Fore
290 261 m 0
 290 261 l 0
 300 266 323 284 333 294 c 1
 330 332 304 355 257 355 c 0
 187 355 132 314 118 261 c 0
 111 235 124 217 130 208 c 1
 132 208 l 1
 155 254 184 289 243 289 c 0
 269 289 282 278 290 261 c 0
327 251 m 1
 327 251 l 0
 314 244 299 235 289 232 c 1
 286 200 255 162 210 162 c 0
 194 162 183 167 176 173 c 1
 170 166 166 152 161 134 c 2
 125 0 l 1
 58 0 l 1
 99 152 l 2
 106 179 69 198 86 261 c 0
 108 342 184 390 265 390 c 0
 314 390 360 378 383 351 c 1
 392 361 409 391 412 408 c 1
 478 408 l 1
 461 365 422 324 400 305 c 1
 402 293 400 278 395 258 c 1
 326 0 l 1
 260 0 l 1
 327 251 l 1
215 191 m 0
 261 191 279 259 233 259 c 0
 187 259 169 191 215 191 c 0
EndSplineSet
EndChar
StartChar: uni0E29
Encoding: 201 3625 169
Width: 431
Flags: HW
HStem: 0 30 257 30<169 169> 357 30
Fore
394 78 m 0
 394 78 l 0
 388 48 356 0 297 0 c 2
 64 0 l 1
 72 29 l 1
 108 29 l 1
 169 257 l 1
 162 256 154 255 149 255 c 0
 58 255 93 387 189 387 c 0
 276 387 252 320 250 312 c 2
 235 257 l 1
 247 261 250 260 257 260 c 0
 321 260 309 173 254 155 c 1
 300 140 362 193 370 235 c 1
 398 341 l 1
 443 382 l 1
 457 390 482 399 470 362 c 0
 470 361 399 97 394 78 c 0
325 70 m 0
 348 158 l 0
 290 105 226 113 204 141 c 1
 204 141 179 49 174 29 c 1
 278 29 l 2
 296 29 317 42 325 70 c 0
231 171 m 0
 231 171 l 0
 274 171 291 235 248 235 c 0
 205 235 188 171 231 171 c 0
156 287 m 0
 202 287 220 355 174 355 c 0
 128 355 110 287 156 287 c 0
EndSplineSet
EndChar
StartChar: uni0E2A
Encoding: 202 3626 170
Width: 376
Flags: HW
HStem: -3 30 219 30
Fore
478 408 m 1
 478 408 l 0
 468 380 431 344 391 319 c 1
 394 311 397 294 390 269 c 1
 318 0 l 1
 252 0 l 1
 291 147 l 2
 301 184 277 218 238 218 c 0
 196 218 165 189 156 155 c 2
 147 122 l 1
 251 144 226 2 130 -3 c 0
 67 -5 60 48 68 78 c 2
 87 148 l 2
 104 211 166 242 190 248 c 1
 225 262 286 292 325 318 c 1
 299 375 182 357 119 280 c 1
 99 293 l 1
 183 400 313 413 372 354 c 1
 390 371 404 390 412 408 c 1
 478 408 l 1
311 212 m 0
 311 212 l 1
 311 212 324 262 326 270 c 0
 328 275 329 280 328 284 c 1
 307 273 272 258 246 249 c 1
 271 249 305 238 311 212 c 0
136 27 m 0
 182 27 200 95 154 95 c 0
 108 95 90 27 136 27 c 0
EndSplineSet
EndChar
StartChar: uni0E2B
Encoding: 203 3627 171
Width: 424
Flags: HW
HStem: 0 20 257 30 357 30<392 436>
Fore
366 0 m 1
 299 0 l 1
 364 241 l 1
 366 250 366 255 364 259 c 1
 281 212 204 114 195 102 c 1
 186 87 181 74 178 63 c 2
 161 0 l 1
 94 0 l 1
 163 259 l 1
 157 257 150 256 143 256 c 0
 58 256 86 387 184 387 c 0
 270 387 246 320 244 312 c 2
 203 161 l 1
 257 220 322 266 345 279 c 1
 314 319 363 387 421 387 c 0
 495 387 480 299 428 272 c 1
 432 265 435 257 431 242 c 2
 366 0 l 1
150 287 m 0
 150 287 l 0
 196 287 214 355 168 355 c 0
 122 355 104 287 150 287 c 0
394 289 m 0
 440 289 459 357 413 357 c 0
 367 357 348 289 394 289 c 0
EndSplineSet
EndChar
StartChar: uni0E2C
Encoding: 204 3628 172
Width: 464
Flags: HW
HStem: 0 105 257 30<164 164> 295 30 357 30 387 30
Fore
602 419 m 1
 602 419 l 0
 582 353 512 320 490 314 c 1
 406 0 l 1
 342 0 l 1
 314 263 l 1
 157 0 l 1
 95 0 l 1
 164 257 l 1
 157 256 149 255 144 255 c 0
 55 255 88 387 184 387 c 0
 271 387 247 320 245 312 c 0
 244 311 205 165 205 165 c 2
 200 147 183 104 183 104 c 1
 187 104 l 1
 187 104 205 141 216 162 c 1
 338 363 l 1
 344 363 l 1
 369 162 l 1
 370 141 369 104 369 104 c 1
 373 104 l 1
 373 104 379 147 384 165 c 2
 420 296 l 1
 342 302 376 416 455 416 c 0
 491 416 510 395 501 355 c 1
 515 363 538 389 543 419 c 1
 602 419 l 1
431 325 m 0
 431 325 l 0
 474 325 491 387 448 387 c 0
 405 387 388 325 431 325 c 0
151 287 m 0
 197 287 215 355 169 355 c 0
 123 355 105 287 151 287 c 0
EndSplineSet
EndChar
StartChar: uni0E2D
Encoding: 205 3629 173
Width: 369
Flags: HW
HStem: -5 20 260 30
Fore
339 103 m 1
 339 103 l 0
 315 14 213 -5 178 -5 c 0
 131 -5 49 12 74 104 c 2
 101 205 l 2
 109 234 144 292 208 290 c 0
 305 287 251 140 157 163 c 1
 135 81 l 1
 116 7 244 5 265 81 c 1
 265 81 315 267 317 275 c 0
 342 370 192 382 109 280 c 1
 89 293 l 1
 214 450 417 395 383 269 c 1
 339 103 l 1
181 192 m 0
 227 192 246 260 200 260 c 0
 154 260 135 192 181 192 c 0
EndSplineSet
EndChar
StartChar: uni0E2E
Encoding: 206 3630 174
Width: 369
Flags: HW
HStem: -5 20 212 30 266 30
Fore
429 392 m 1
 429 392 l 0
 415 367 399 347 382 331 c 1
 388 315 390 294 383 269 c 1
 339 103 l 1
 315 14 213 -5 178 -5 c 0
 131 -5 49 12 74 104 c 2
 88 157 l 2
 96 186 131 244 195 242 c 0
 291 239 236 96 144 117 c 1
 135 81 l 2
 116 7 244 5 265 81 c 1
 265 81 315 267 317 275 c 0
 320 290 l 1
 280 273 242 269 219 267 c 0
 143 261 102 273 108 302 c 0
 123 375 280 413 351 367 c 1
 357 375 362 384 366 392 c 1
 429 392 l 1
312 326 m 0
 312 326 l 0
 280 373 164 352 155 315 c 0
 152 304 171 293 226 296 c 0
 261 298 289 309 312 326 c 0
169 145 m 0
 215 145 233 213 187 213 c 0
 141 213 123 145 169 145 c 0
EndSplineSet
EndChar
StartChar: uni0E2F
Encoding: 207 3631 175
Width: 351
Flags: HW
HStem: -12 20 359 30
Fore
282 -12 m 1
 215 -12 l 1
 293 281 l 1
 221 240 135 254 114 272 c 0
 69 311 117 389 182 389 c 0
 238 389 253 327 205 286 c 1
 287 286 320 342 332 387 c 1
 389 387 l 1
 282 -12 l 1
155 292 m 0
 201 292 219 360 173 360 c 0
 127 360 109 292 155 292 c 0
EndSplineSet
EndChar
StartChar: uni0E30
Encoding: 208 3632 176
Width: 300
Flags: HW
HStem: -4 30 99 30 258 30 360 30
Fore
370 387 m 1
 370 387 l 0
 332 289 260 258 193 258 c 0
 113 258 100 297 107 325 c 0
 115 354 138 390 188 390 c 0
 229 390 242 363 234 331 c 0
 231 320 224 302 207 293 c 1
 275 294 303 339 313 387 c 1
 370 387 l 1
163 297 m 0
 163 297 l 0
 206 297 223 361 180 361 c 0
 137 361 120 297 163 297 c 0
299 125 m 1
 299 125 l 0
 262 27 190 -4 123 -4 c 0
 43 -4 29 35 37 63 c 0
 45 92 68 128 118 128 c 0
 159 128 172 101 163 69 c 0
 161 58 154 40 136 31 c 1
 205 32 233 77 242 125 c 1
 299 125 l 1
92 35 m 0
 135 35 153 99 110 99 c 0
 67 99 49 35 92 35 c 0
EndSplineSet
EndChar
StartChar: uni0E31
Encoding: 209 3633 177
Width: 0
Flags: HW
HStem: 575 30
Fore
263 601 m 1
 263 601 l 0
 203 482 104 439 20 440 c 0
 -57 440 -117 479 -101 536 c 0
 -91 574 -54 605 -15 605 c 0
 26 605 46 576 36 538 c 0
 29 512 9 490 -21 479 c 1
 56 456 155 486 197 601 c 1
 263 601 l 1
-41 505 m 0
 5 505 24 573 -22 573 c 0
 -68 573 -87 505 -41 505 c 0
EndSplineSet
EndChar
StartChar: uni0E32
Encoding: 210 3634 178
Width: 278
Flags: HW
HStem: 0 20
Fore
220 0 m 1
 153 0 l 1
 233 297 l 2
 250 361 157 367 98 312 c 1
 84 329 l 1
 165 409 331 414 298 292 c 1
 220 0 l 1
EndSplineSet
EndChar
StartChar: uni0E33
Encoding: 211 3635 179
Width: 278
Flags: HW
HStem: 0 20 443 30 536 42
Fore
31 438 m 0
 31 438 l 0
 -63 438 -25 578 69 578 c 0
 162 578 124 438 31 438 c 0
220 0 m 1
 153 0 l 1
 233 297 l 2
 250 361 157 367 98 312 c 1
 84 329 l 1
 165 409 331 414 298 292 c 1
 220 0 l 1
41 473 m 0
 87 473 105 541 59 541 c 0
 13 541 -5 473 41 473 c 0
EndSplineSet
EndChar
StartChar: uni0E34
Encoding: 212 3636 180
Width: 0
Flags: HW
Fore
64 414 m 0
 64 414 l 0
 -42 466 -126 486 -236 464 c 1
 -146 636 119 620 64 414 c 0
38 461 m 1
 30 547 -87 582 -171 500 c 1
 -104 508 -20 495 38 461 c 1
EndSplineSet
EndChar
StartChar: uni0E35
Encoding: 213 3637 181
Width: 0
Flags: HW
Fore
64 414 m 0
 64 414 l 0
 -42 466 -126 486 -236 464 c 1
 -178 575 -46 608 24 561 c 1
 39 617 l 1
 104 617 l 1
 70 488 l 1
 73 467 71 442 64 414 c 0
38 461 m 1
 30 547 -87 582 -171 500 c 1
 -104 508 -20 495 38 461 c 1
EndSplineSet
EndChar
StartChar: uni0E36
Encoding: 214 3638 182
Width: 0
Flags: HW
HStem: 590 30<52 86.5>
Fore
64 414 m 0
 64 414 l 0
 -42 466 -126 486 -236 464 c 1
 -184 563 -76 599 -2 574 c 1
 6 593 31 620 73 620 c 0
 150 620 131 525 67 501 c 1
 74 477 73 448 64 414 c 0
38 461 m 0
 38 461 l 0
 30 547 -87 582 -171 500 c 1
 -104 508 -20 495 38 461 c 0
48 526 m 0
 91 526 108 590 65 590 c 0
 22 590 5 526 48 526 c 0
EndSplineSet
EndChar
StartChar: uni0E37
Encoding: 215 3639 183
Width: 0
Flags: HW
Fore
64 414 m 0
 64 414 l 0
 -42 466 -126 486 -236 464 c 1
 -195 543 -115 583 -48 582 c 1
 -37 618 l 1
 10 618 l 1
 -2 572 l 1
 13 568 24 560 34 553 c 1
 53 618 l 1
 103 618 l 1
 70 491 l 1
 73 469 72 443 64 414 c 0
38 461 m 1
 30 547 -87 582 -171 500 c 1
 -104 508 -20 495 38 461 c 1
EndSplineSet
EndChar
StartChar: uni0E38
Encoding: 216 3640 184
Width: 0
Flags: HW
HStem: -148 30 -64 30
Fore
-116 -200 m 1
 -179 -200 l 1
 -164 -147 l 1
 -169 -148 -176 -148 -182 -148 c 0
 -255 -147 -228 -40 -151 -34 c 0
 -105 -32 -79 -54 -88 -97 c 1
 -116 -200 l 1
-135 -92 m 0
 -130 -76 -140 -63 -155 -63 c 0
 -175 -63 -188 -75 -193 -92 c 0
 -197 -107 -187 -121 -170 -121 c 0
 -152 -121 -139 -107 -135 -92 c 0
EndSplineSet
EndChar
StartChar: uni0E39
Encoding: 217 3641 185
Width: 0
Flags: HW
HStem: -208 30 -139 20 -53 20<-262 -202.5>
Fore
-98 -138 m 1
 -98 -138 l 0
 -108 -176 -140 -208 -185 -208 c 0
 -230 -208 -252 -183 -242 -147 c 1
 -240 -137 l 1
 -243 -138 -247 -139 -253 -139 c 0
 -327 -138 -299 -33 -225 -33 c 0
 -180 -33 -169 -60 -180 -98 c 1
 -199 -167 l 1
 -202 -175 -197 -182 -189 -182 c 0
 -180 -182 -172 -177 -170 -167 c 1
 -135 -37 l 1
 -71 -37 l 1
 -98 -138 l 1
-212 -86 m 0
 -208 -70 -217 -57 -232 -57 c 0
 -251 -57 -265 -69 -270 -86 c 0
 -274 -101 -265 -115 -248 -115 c 0
 -230 -115 -216 -101 -212 -86 c 0
EndSplineSet
EndChar
StartChar: uni0E3A
Encoding: 218 3642 186
Width: 0
Flags: HW
HStem: -113 90
Fore
-122 -113 m 0
 -182 -113 -160 -28 -100 -28 c 0
 -42 -28 -64 -113 -122 -113 c 0
EndSplineSet
EndChar
StartChar: zerospace
Encoding: 220 8203 187
Width: 530
Flags: HW
HStem: 0 40<74 409>
DStem: 74 40 102 -32 40 -122 84 -122 436 -35 495 40 418 -122 462 -122
Fore
462 -122 m 1
 418 -122 l 1
 436 -35 l 1
 440 -11 429 0 402 0 c 2
 143 0 l 2
 120 0 107 -10 102 -32 c 1
 84 -122 l 1
 40 -122 l 1
 74 40 l 1
 495 40 l 1
 462 -122 l 1
EndSplineSet
EndChar
StartChar: dottedcircle
Encoding: 221 9676 188
Width: 632
Flags: HW
HStem: -9 22<288 291> -9 50<288 296> 22 50<381 388> 77 50<141 148> 85 49<449 455> 111 23<451 454> 171 50<489 496> 176 50<138 145> 198 23<494 496> 260 50<484 492> 264 50<184 191> 288 22<489 492> 292 22<189 191> 321 22<436 439> 321 50<436 443> 326 22<267 272> 326 50<267 275> 348 50<362 369>
VStem: 115 26<198 203> 118 26<99 104> 118 50<98 104> 163 26<287 292> 172 24<38 38 41 43> 196 26<38 43> 244 26<348 353> 244 51<348 354> 265 52<13 18> 358 26<45 50> 366 25<371 376> 383 25<45 50> 414 25<343 348> 414 51<343 349> 427 22<109 109.709> 427 50<106 111> 451 26<106 111> 464 51<283 289> 469 50<192 198> 493 26<193 198>
Fore
184 301 m 6
264 361 m 6
191 52 m 6
139 112 m 6
378 58 m 6
446 120 m 6
484 297 m 6
434 356 m 6
489 207 m 6
135 211 m 6
360 385 m 6
191 314 m 0
 203 316 214 304 214 292 c 0
 213 291 213 289 213 287 c 0
 210 274 200 265 186 264 c 0
 174 264 163 275 163 287 c 0
 163 289 163 291 164 292 c 0
 167 305 178 314 191 314 c 0
191 290 m 0
 191 290 190 292 189 292 c 0
 189 292 l 0
 189 291 186 290 186 290 c 0
 186 290 188 288 189 287 c 0
 189 287 l 0
 188 288 191 290 191 290 c 0
273 376 m 0
 284 376 295 366 295 353 c 0
 295 351 294 349 294 348 c 0
 291 335 281 326 267 326 c 0
 254 325 244 336 244 348 c 0
 244 349 244 351 245 353 c 0
 248 367 258 375 273 376 c 0
273 350 m 0
 273 350 271 352 270 353 c 0
 270 353 l 0
 270 352 267 350 267 350 c 0
 267 350 269 348 270 348 c 0
 270 348 l 0
 269 348 273 350 273 350 c 0
199 65 m 0
 211 65 223 55 222 43 c 0
 222 41 222 40 222 38 c 0
 219 25 207 16 194 15 c 0
 182 15 171 26 172 38 c 0
 172 40 172 41 172 43 c 0
 175 56 186 64 199 65 c 0
199 41 m 0
 197 43 l 0
 197 43 l 0
 197 42 194 41 194 41 c 0
 194 41 196 39 196 38 c 0
 196 38 l 0
 196 39 199 41 199 41 c 0
146 127 m 0
 158 127 170 115 168 104 c 0
 168 102 168 100 168 99 c 0
 165 86 154 77 141 77 c 0
 129 76 118 87 118 99 c 0
 118 100 118 102 119 104 c 0
 123 116 133 126 146 127 c 0
146 101 m 0
 146 101 145 103 144 104 c 0
 144 104 l 0
 144 103 141 101 141 101 c 0
 143 99 l 0
 143 99 144 99 143 99 c 0
 146 101 l 0
386 72 m 0
 398 72 409 62 408 50 c 0
 408 48 408 47 408 45 c 0
 405 32 394 22 381 22 c 0
 369 22 358 33 358 45 c 0
 358 47 358 48 358 50 c 0
 362 63 373 71 386 72 c 0
386 47 m 0
 386 47 385 49 384 50 c 0
 384 50 l 0
 384 49 381 47 381 47 c 0
 383 45 l 0
 383 45 l 0
 383 46 386 47 386 47 c 0
454 134 m 0
 467 135 477 124 477 111 c 0
 477 110 477 108 476 106 c 0
 473 94 463 85 449 85 c 0
 437 84 426 95 427 106 c 0
 427 108 427 110 427 111 c 0
 430 125 441 134 454 134 c 0
454 109 m 0
 454 109 452 111 451 111 c 0
 451 111 451 112 451 111 c 0
 452 111 449 109 449 109 c 0
 449 109 450 107 451 106 c 0
 451 106 l 0
 451 107 454 109 454 109 c 0
492 310 m 0
 503 311 515 300 515 288 c 0
 515 287 515 285 514 283 c 0
 511 270 500 261 486 260 c 0
 474 260 464 272 464 283 c 0
 464 285 464 287 465 288 c 0
 468 301 478 310 492 310 c 0
492 286 m 0
 492 286 490 288 489 288 c 0
 489 288 l 0
 486 286 l 0
 486 286 488 284 489 283 c 0
 489 283 l 0
 488 284 492 286 492 286 c 0
441 371 m 0
 453 371 465 360 465 348 c 0
 465 346 464 345 464 343 c 0
 461 330 450 321 436 321 c 0
 424 321 414 331 414 343 c 0
 414 345 414 346 415 348 c 0
 418 361 428 370 441 371 c 0
441 345 m 0
 441 345 440 347 439 348 c 0
 439 348 l 0
 439 347 436 345 436 345 c 0
 436 345 438 343 439 343 c 0
 439 343 l 0
 438 344 441 345 441 345 c 0
496 221 m 0
 509 222 520 210 519 198 c 0
 519 197 519 195 519 193 c 0
 516 181 504 172 491 171 c 0
 479 171 469 182 469 193 c 0
 469 195 469 197 470 198 c 0
 473 211 483 221 496 221 c 0
496 196 m 0
 496 196 495 198 494 198 c 0
 494 198 494 199 494 198 c 0
 491 196 l 0
 491 196 493 194 493 193 c 0
 493 193 l 0
 493 194 496 196 496 196 c 0
143 226 m 0
 155 226 166 215 165 203 c 0
 165 201 165 199 165 198 c 0
 162 185 151 176 138 176 c 0
 126 175 114 186 115 198 c 0
 115 199 115 201 115 203 c 0
 118 216 130 225 143 226 c 0
143 200 m 0
 143 200 141 202 141 203 c 0
 141 203 l 0
 141 202 138 200 138 200 c 0
 140 198 l 0
 140 198 l 0
 143 200 l 0
294 41 m 0
 305 41 317 30 317 18 c 0
 317 16 317 14 316 13 c 0
 312 0 302 -9 288 -9 c 0
 277 -10 265 1 265 13 c 0
 265 14 265 16 267 18 c 0
 270 31 280 40 294 41 c 0
294 15 m 0
 294 15 292 17 291 18 c 0
 291 18 l 0
 291 17 288 15 288 15 c 0
 288 15 290 13 291 13 c 0
 291 13 l 0
 294 15 l 0
369 398 m 0
 381 399 392 388 391 376 c 0
 391 375 391 373 391 371 c 0
 388 357 377 349 364 348 c 0
 351 348 340 358 341 371 c 0
 341 373 341 375 341 376 c 0
 344 389 355 398 369 398 c 0
369 374 m 0
 367 376 l 0
 367 376 l 0
 364 374 l 0
 364 374 366 372 366 371 c 0
 366 371 l 0
 366 372 369 374 369 374 c 0
EndSplineSet
EndChar
StartChar: uni0E3F
Encoding: 223 3647 189
Width: 490
Flags: HW
HStem: -6 30 228 42 452 30
Fore
483 130 m 0
 483 130 l 0
 458 38 387 -5 280 -6 c 1
 260 -77 l 1
 201 -77 l 1
 219 -7 l 1
 23 -6 l 1
 31 21 l 1
 90 21 104 38 109 57 c 2
 205 415 l 2
 210 433 205 451 146 452 c 1
 153 478 l 1
 179 478 315 479 349 479 c 1
 367 543 l 1
 426 543 l 1
 410 476 l 1
 500 476 543 441 519 352 c 0
 503 290 464 260 414 248 c 1
 464 239 502 203 483 130 c 0
292 268 m 1
 337 438 l 0
 301 440 281 440 276 423 c 1
 235 268 l 1
 292 268 l 1
446 349 m 0
 446 349 l 0
 461 408 441 435 398 434 c 1
 354 270 l 1
 411 272 435 311 446 349 c 0
229 33 m 0
 281 226 l 0
 269 226 235 226 224 226 c 1
 180 65 l 1
 175 44 170 26 229 33 c 0
402 132 m 0
 415 181 393 215 340 217 c 1
 292 36 l 1
 354 42 387 74 402 132 c 0
EndSplineSet
EndChar
StartChar: uni0E40
Encoding: 224 3648 190
Width: 220
Flags: HW
HStem: -5 30<119 165> 93 30
Fore
164 122 m 0
 164 122 l 0
 254 122 219 -5 129 -5 c 0
 80 -5 65 37 76 77 c 2
 147 341 l 1
 193 382 l 1
 205 391 232 399 220 362 c 0
 220 361 166 166 154 121 c 1
 156 121 162 122 164 122 c 0
142 25 m 0
 188 25 206 93 160 93 c 0
 114 93 96 25 142 25 c 0
EndSplineSet
EndChar
StartChar: uni0E41
Encoding: 225 3649 191
Width: 397
Flags: HW
HStem: -5 30 92 30<164 182 340 358>
Fore
340 122 m 0
 340 122 l 0
 430 122 395 -5 305 -5 c 0
 256 -5 241 37 252 77 c 2
 323 341 l 1
 369 382 l 1
 381 391 408 399 396 362 c 0
 396 361 342 166 330 121 c 1
 332 121 338 122 340 122 c 0
164 122 m 0
 164 122 l 0
 254 122 219 -5 129 -5 c 0
 80 -5 65 37 76 77 c 2
 147 341 l 1
 193 382 l 1
 205 391 232 399 220 362 c 0
 220 361 166 166 154 121 c 1
 156 121 162 122 164 122 c 0
316 24 m 0
 316 24 l 0
 362 24 381 92 335 92 c 0
 289 92 270 24 316 24 c 0
140 24 m 0
 186 24 205 92 159 92 c 0
 113 92 94 24 140 24 c 0
EndSplineSet
EndChar
StartChar: uni0E42
Encoding: 226 3650 192
Width: 221
Flags: HW
HStem: -5 30 92 30<187 206> 580 52
Fore
383 589 m 0
 383 589 l 0
 352 539 318 543 294 552 c 0
 259 565 222 584 201 584 c 0
 186 584 176 584 150 556 c 1
 257 488 l 2
 272 478 272 467 267 449 c 2
 267 449 190 166 178 121 c 1
 182 122 186 122 188 122 c 0
 278 122 243 -5 153 -5 c 0
 104 -5 89 37 100 77 c 2
 202 450 l 2
 207 469 202 480 196 483 c 2
 102 541 l 1
 138 590 177 632 225 632 c 0
 261 632 334 573 364 602 c 0
 380 617 397 615 383 589 c 0
164 24 m 0
 210 24 229 92 183 92 c 0
 137 92 118 24 164 24 c 0
EndSplineSet
EndChar
StartChar: uni0E43
Encoding: 227 3651 193
Width: 236
Flags: HW
HStem: -5 30 92 30<201 219> 437 30<143.5 169.5> 518 30 590 42
Fore
201 122 m 0
 201 122 l 0
 291 122 256 -5 166 -5 c 0
 117 -5 102 37 113 77 c 2
 241 548 l 1
 248 576 229 594 207 594 c 0
 180 594 149 582 132 532 c 1
 147 546 169 548 173 548 c 0
 250 548 220 437 142 437 c 0
 88 437 88 498 102 540 c 0
 120 591 165 632 226 632 c 0
 292 632 318 588 304 536 c 2
 191 121 l 1
 193 121 199 122 201 122 c 0
168 517 m 0
 168 517 l 0
 151 517 138 506 134 492 c 0
 131 481 135 467 152 467 c 0
 187 467 201 517 168 517 c 0
177 24 m 0
 223 24 242 92 196 92 c 0
 150 92 131 24 177 24 c 0
EndSplineSet
EndChar
StartChar: uni0E44
Encoding: 228 3652 194
Width: 253
Flags: HW
HStem: -5 30 92 30<219 237> 428 30 602 30<263.5 269.5>
Fore
219 122 m 0
 219 122 l 0
 309 122 274 -5 184 -5 c 0
 135 -5 121 37 132 77 c 2
 273 587 l 1
 276 596 273 602 266 602 c 0
 257 602 251 594 249 587 c 2
 223 488 l 1
 214 457 191 431 151 431 c 0
 113 430 98 457 108 491 c 1
 135 592 l 1
 136 597 137 603 132 609 c 0
 126 617 123 619 116 627 c 1
 106 644 126 659 142 648 c 1
 176 628 l 2
 189 620 189 612 185 599 c 1
 151 471 l 1
 150 465 155 458 162 458 c 0
 168 458 177 464 179 471 c 2
 204 565 l 1
 215 603 241 632 286 632 c 0
 331 632 339 599 331 567 c 1
 331 567 221 165 209 120 c 1
 211 120 215 122 219 122 c 0
195 24 m 0
 241 24 260 92 214 92 c 0
 168 92 149 24 195 24 c 0
EndSplineSet
EndChar
StartChar: uni0E45
Encoding: 229 3653 195
Width: 198
Flags: HW
Fore
108 -117 m 1
 60 -159 l 1
 46 -167 23 -176 35 -139 c 0
 39 -125 152 297 152 297 c 2
 169 361 76 367 17 312 c 1
 3 329 l 1
 84 409 250 414 217 292 c 1
 108 -117 l 1
EndSplineSet
EndChar
StartChar: uni0E46
Encoding: 230 3654 196
Width: 458
Flags: HW
HStem: 170 20<257.5 300.5> 258 20<296 302>
Fore
362 -117 m 1
 316 -159 l 0
 302 -167 282 -172 291 -139 c 0
 295 -125 413 316 413 316 c 1
 416 329 408 339 398 342 c 1
 344 299 l 1
 309 349 l 1
 285 335 262 310 254 257 c 1
 269 274 290 278 302 278 c 0
 380 276 349 166 272 166 c 0
 213 166 214 225 227 278 c 0
 235 311 263 364 322 390 c 1
 356 342 l 1
 414 390 l 1
 476 383 484 339 472 296 c 1
 362 -117 l 1
279 190 m 0
 322 190 339 254 296 254 c 0
 253 254 236 190 279 190 c 0
EndSplineSet
EndChar
StartChar: uni0E47
Encoding: 231 3655 197
Width: 0
Flags: HW
HStem: 427 30 581 30
Fore
133 667 m 1
 133 667 l 0
 110 587 49 576 7 578 c 0
 -17 579 -40 581 -67 583 c 0
 -107 586 -148 544 -135 488 c 1
 -110 532 -61 516 -43 491 c 1
 -43 491 -39 483 -37 493 c 0
 -21 567 100 567 79 490 c 0
 68 447 32 427 2 427 c 0
 -68 427 -67 479 -97 479 c 0
 -122 479 -133 443 -123 427 c 1
 -162 428 l 1
 -229 507 -158 629 -59 617 c 0
 -37 614 -11 612 10 611 c 0
 20 610 61 609 70 667 c 1
 133 667 l 1
10 459 m 0
 49 459 65 518 26 518 c 0
 -13 518 -29 459 10 459 c 0
EndSplineSet
EndChar
StartChar: uni0E48
Encoding: 232 3656 198
Width: 0
Flags: HW
Fore
155 799 m 1
 110 665 l 1
 60 665 l 1
 87 799 l 1
 155 799 l 1
EndSplineSet
EndChar
StartChar: uni0E49
Encoding: 233 3657 199
Width: 0
Flags: HW
HStem: 770 30
Fore
313 800 m 1
 313 800 l 0
 245 623 44 645 14 647 c 1
 21 670 l 1
 47 673 61 685 70 697 c 1
 70 699 l 1
 70 699 64 697 55 698 c 0
 -3 707 23 800 93 800 c 0
 149 800 136 750 136 749 c 0
 123 701 92 679 92 679 c 1
 91 677 l 1
 91 677 213 674 255 800 c 1
 313 800 l 1
71 722 m 0
 107 722 121 773 85 773 c 0
 51 773 37 722 71 722 c 0
EndSplineSet
EndChar
StartChar: uni0E4A
Encoding: 234 3658 200
Width: 0
Flags: HW
HStem: 642 20 709 20
Fore
257 798 m 1
 257 798 l 0
 241 715 169 642 78 642 c 1
 84 665 l 1
 137 689 142 755 117 765 c 1
 74 740 l 1
 41 767 l 1
 19 763 3 736 1 721 c 1
 3 719 l 1
 3 719 14 732 36 732 c 0
 62 732 77 715 69 688 c 0
 62 660 39 642 12 642 c 0
 -30 642 -45 679 -32 726 c 0
 -25 755 12 799 53 802 c 1
 82 770 l 1
 129 802 l 1
 194 782 173 718 144 687 c 1
 146 686 l 1
 177 703 207 743 209 798 c 1
 257 798 l 1
18 665 m 0
 48 665 60 709 30 709 c 0
 1 709 -11 665 18 665 c 0
EndSplineSet
EndChar
StartChar: uni0E4B
Encoding: 235 3659 201
Width: 0
Flags: HW
Fore
180 698 m 1
 119 697 l 1
 104 646 l 1
 56 646 l 1
 69 697 l 1
 8 698 l 1
 21 746 l 1
 82 747 l 1
 95 798 l 1
 147 798 l 1
 132 747 l 1
 193 746 l 1
 180 698 l 1
EndSplineSet
EndChar
StartChar: uni0E4C
Encoding: 236 3660 202
Width: 0
Flags: HW
HStem: 583 30
Fore
228 762 m 1
 228 762 l 0
 194 699 119 687 102 683 c 1
 101 681 l 1
 117 680 130 663 122 636 c 0
 114 606 85 583 52 583 c 0
 16 583 1 610 9 640 c 0
 16 666 45 700 107 711 c 0
 138 717 165 739 181 776 c 1
 228 762 l 1
59 610 m 0
 93 610 108 664 74 664 c 0
 37 664 22 610 59 610 c 0
EndSplineSet
EndChar
StartChar: uni0E4D
Encoding: 237 3661 203
Width: 0
Flags: HW
HStem: 438 30 536 42
Fore
31 438 m 0
 31 438 l 0
 -63 438 -25 578 69 578 c 0
 162 578 124 438 31 438 c 0
41 473 m 0
 87 473 105 541 59 541 c 0
 13 541 -5 473 41 473 c 0
EndSplineSet
EndChar
StartChar: uni0E4E
Encoding: 238 3662 204
Width: 0
Flags: HW
Fore
153 592 m 1
 100 587 85 562 94 536 c 1
 56 495 l 1
 29 516 10 503 6 489 c 0
 2 475 13 467 33 467 c 1
 3 431 l 1
 -31 431 -47 458 -39 488 c 0
 -25 542 30 553 45 539 c 1
 48 541 l 1
 43 569 70 626 156 626 c 1
 153 592 l 1
EndSplineSet
EndChar
StartChar: uni0E4F
Encoding: 239 3663 205
Width: 480
Flags: HW
HStem: -9 52 99 52 235 52 343 52<290 373.5>
Fore
494 193 m 0
 494 193 l 0
 464 82 347 -9 238 -9 c 0
 126 -9 59 82 89 193 c 0
 119 305 234 395 346 395 c 0
 455 395 524 305 494 193 c 0
442 193 m 0
 442 193 l 0
 464 276 415 343 332 343 c 0
 247 343 163 276 141 193 c 0
 118 110 166 42 251 42 c 0
 334 42 419 110 442 193 c 0
385 193 m 0
 385 193 l 0
 371 141 317 99 267 99 c 0
 213 99 182 141 196 193 c 0
 210 247 263 287 317 287 c 0
 367 287 399 247 385 193 c 0
336 193 m 0
 342 217 328 237 304 237 c 0
 280 237 254 217 248 193 c 0
 241 169 256 149 280 149 c 0
 304 149 329 169 336 193 c 0
EndSplineSet
EndChar
StartChar: uni0E50
Encoding: 240 3664 206
Width: 420
Flags: HW
HStem: -6 36<185 251> 277 42
Fore
434 154 m 0
 434 154 l 0
 409 60 307 -6 208 -6 c 0
 106 -6 41 58 67 155 c 0
 92 250 193 319 295 319 c 0
 394 319 460 250 434 154 c 0
366 155 m 0
 383 219 352 280 285 280 c 0
 215 280 153 222 135 154 c 0
 118 89 152 30 218 30 c 0
 284 30 349 94 366 155 c 0
EndSplineSet
EndChar
StartChar: uni0E51
Encoding: 241 3665 207
Width: 420
Flags: HW
HStem: 64 30 160 30 273 42
Fore
433 151 m 0
 433 151 l 0
 410 65 338 -5 253 -24 c 1
 218 -9 l 1
 328 21 354 97 369 152 c 0
 391 236 347 278 282 278 c 0
 210 278 151 225 131 151 c 0
 99 30 207 1 244 72 c 1
 231 65 222 64 213 64 c 0
 175 64 160 94 169 126 c 0
 178 162 211 190 250 190 c 0
 299 190 313 151 302 107 c 0
 260 -47 13 -49 66 151 c 0
 94 255 196 315 292 315 c 0
 387 315 461 254 433 151 c 0
224 98 m 0
 264 98 280 158 240 158 c 0
 200 158 184 98 224 98 c 0
EndSplineSet
EndChar
StartChar: uni0E52
Encoding: 242 3666 208
Width: 420
Flags: HW
HStem: -1 30 56 30 144 30<239 255> 444 20
Fore
447 164 m 0
 447 164 l 0
 438 131 431 100 419 73 c 0
 401 32 383 -1 313 -1 c 2
 126 -1 l 2
 56 -1 34 37 47 87 c 1
 122 365 l 1
 137 422 133 434 133 434 c 1
 132 472 160 467 170 458 c 1
 186 430 l 1
 186 430 195 415 182 365 c 1
 104 76 l 2
 97 49 112 30 134 30 c 2
 322 30 l 2
 344 30 353 46 359 59 c 0
 384 122 429 268 390 277 c 0
 372 281 342 238 329 209 c 0
 318 184 287 182 290 210 c 0
 293 236 292 280 268 277 c 0
 243 274 222 228 211 166 c 1
 219 171 234 174 244 174 c 0
 323 174 290 56 212 56 c 0
 170 56 155 86 157 125 c 0
 166 240 221 321 277 319 c 0
 313 318 321 285 322 261 c 0
 322 258 321 254 321 254 c 1
 323 254 l 1
 323 254 324 258 326 261 c 0
 341 285 370 319 406 319 c 0
 466 319 470 250 447 164 c 0
219 84 m 0
 259 84 275 144 235 144 c 0
 195 144 179 84 219 84 c 0
EndSplineSet
EndChar
StartChar: uni0E53
Encoding: 243 3667 209
Width: 420
Flags: HW
HStem: -5 30 87 30 298 20<160.5 243 356 427>
Fore
373 5 m 0
 338 -3 l 0
 325 -4 305 -8 319 21 c 0
 403 185 406 283 353 276 c 0
 321 272 290 206 278 159 c 0
 275 149 272 142 268 126 c 0
 257 90 213 91 224 126 c 0
 228 141 231 149 233 158 c 0
 250 220 241 276 212 276 c 0
 184 276 135 232 123 109 c 1
 130 113 144 119 158 119 c 0
 195 119 212 90 203 57 c 0
 194 23 162 -5 125 -5 c 0
 85 -5 62 23 59 60 c 0
 50 153 99 318 222 318 c 0
 264 318 277 281 281 262 c 1
 309 304 340 318 372 318 c 0
 482 318 464 171 373 5 c 0
133 27 m 0
 173 27 189 87 149 87 c 0
 109 87 93 27 133 27 c 0
EndSplineSet
EndChar
StartChar: uni0E54
Encoding: 244 3668 210
Width: 420
Flags: HW
HStem: -2 30 275 42 444 20<464 464>
Fore
520 429 m 0
 520 429 l 0
 491 339 416 274 316 274 c 0
 304 274 284 276 272 276 c 0
 199 276 154 216 139 164 c 0
 121 97 142 24 224 30 c 0
 234 31 251 32 260 32 c 1
 224 58 191 108 205 159 c 0
 219 211 267 239 307 236 c 0
 343 233 357 207 347 169 c 0
 336 127 286 100 254 112 c 1
 264 83 315 37 375 42 c 0
 379 42 392 44 396 44 c 0
 421 44 400 20 400 20 c 1
 382 -1 l 1
 382 -1 320 0 263 2 c 0
 226 3 215 0 187 -2 c 0
 108 -6 44 52 74 164 c 0
 102 269 192 319 275 319 c 0
 300 319 306 317 324 317 c 0
 383 317 436 359 464 464 c 1
 512 448 l 2
 520 446 525 442 520 429 c 0
278 144 m 0
 318 144 334 204 294 204 c 0
 254 204 238 144 278 144 c 0
EndSplineSet
EndChar
StartChar: uni0E55
Encoding: 245 3669 211
Width: 420
Flags: HW
HStem: -2 30 204 30 276 30 366 30<312.5 342>
Fore
520 430 m 0
 520 430 l 0
 491 338 412 275 321 274 c 0
 308 274 284 276 272 276 c 0
 199 276 154 217 139 165 c 0
 121 98 151 23 233 29 c 0
 243 30 250 32 260 32 c 1
 215 59 191 109 205 160 c 0
 219 212 267 240 308 237 c 0
 344 234 358 208 348 170 c 0
 336 128 286 100 254 113 c 1
 265 84 315 38 376 43 c 0
 380 43 392 45 396 45 c 0
 421 45 401 21 401 21 c 1
 382 -1 l 1
 382 -1 321 0 264 2 c 0
 237 3 215 0 187 -2 c 0
 108 -6 44 53 74 165 c 0
 101 265 181 310 248 318 c 1
 248 324 249 329 250 333 c 0
 260 371 294 396 331 396 c 0
 369 396 387 370 377 333 c 0
 377 332 377 331 376 330 c 0
 405 345 445 384 464 465 c 1
 512 449 l 2
 520 447 526 443 520 430 c 0
306 306 m 0
 306 306 l 0
 346 306 362 366 322 366 c 0
 283 366 267 306 306 306 c 0
278 144 m 0
 318 144 334 204 294 204 c 0
 254 204 238 144 278 144 c 0
EndSplineSet
EndChar
StartChar: uni0E56
Encoding: 246 3670 212
Width: 420
Flags: HW
HStem: -6 30 67 30 279 42<273 307> 442 20<164 218 218 218>
Fore
428 155 m 0
 428 155 l 0
 403 63 323 -6 200 -6 c 0
 1 -6 64 194 177 194 c 0
 215 194 232 165 223 129 c 0
 214 97 184 67 144 67 c 0
 140 67 136 68 133 68 c 1
 144 49 164 29 210 29 c 0
 279 29 344 86 363 155 c 0
 382 229 340 279 274 279 c 0
 247 279 213 276 182 260 c 0
 170 254 140 258 152 292 c 1
 171 362 163 400 148 441 c 0
 145 448 148 462 164 462 c 2
 218 462 l 1
 224 442 230 380 209 311 c 1
 231 318 261 321 285 321 c 0
 391 321 455 258 428 155 c 0
152 100 m 0
 192 100 208 160 168 160 c 0
 128 160 112 100 152 100 c 0
EndSplineSet
EndChar
StartChar: uni0E57
Encoding: 247 3671 213
Width: 420
Flags: HW
HStem: -4 30 87 30 276 42
Fore
508 444 m 0
 508 444 l 0
 520 284 413 27 300 -3 c 1
 300 -3 246 -12 261 20 c 2
 261 20 285 69 299 100 c 0
 357 230 342 276 318 276 c 0
 293 276 266 239 257 216 c 0
 252 206 248 193 243 178 c 0
 235 155 202 154 206 178 c 0
 210 193 211 207 213 217 c 0
 216 242 207 276 186 276 c 0
 166 276 120 242 108 107 c 1
 118 117 131 120 146 120 c 0
 182 120 200 92 191 59 c 0
 182 25 150 -4 113 -4 c 0
 66 -4 51 29 50 67 c 0
 48 193 102 314 198 318 c 0
 223 319 245 296 248 264 c 1
 268 296 304 319 329 318 c 0
 416 314 405 179 312 38 c 1
 322 40 335 55 341 63 c 0
 413 156 461 302 441 422 c 1
 476 456 l 2
 491 470 506 480 508 444 c 0
120 27 m 0
 160 27 176 87 136 87 c 0
 96 87 80 27 120 27 c 0
EndSplineSet
EndChar
StartChar: uni0E58
Encoding: 248 3672 214
Width: 420
Flags: HW
HStem: -7 20 194 30 275 42 441 20<454 454>
Fore
511 424 m 0
 511 424 l 0
 481 337 401 271 321 271 c 0
 302 271 286 272 270 272 c 0
 193 272 145 219 129 160 c 0
 117 114 117 76 138 54 c 1
 150 78 183 137 226 153 c 1
 260 148 l 1
 225 20 331 13 363 102 c 1
 311 93 294 131 303 163 c 0
 314 204 349 228 386 228 c 0
 438 228 445 193 438 160 c 0
 416 43 345 -6 294 -6 c 0
 259 -6 198 -1 204 86 c 1
 188 66 169 23 158 -7 c 1
 107 -8 32 43 63 161 c 0
 92 266 182 317 264 317 c 0
 283 317 306 314 321 314 c 0
 374 314 430 361 454 461 c 1
 503 445 l 2
 511 443 516 437 511 424 c 0
361 134 m 0
 401 134 417 194 377 194 c 0
 337 194 321 134 361 134 c 0
EndSplineSet
EndChar
StartChar: uni0E59
Encoding: 249 3673 215
Width: 420
Flags: HW
HStem: -4 30<143 172.5> 86 30 222 52<387.5 417> 274 42 441 20<473 473>
Fore
535 427 m 0
 535 427 l 0
 507 291 453 222 391 222 c 0
 346 222 352 271 327 272 c 0
 315 273 309 254 308 243 c 1
 309 236 316 220 318 215 c 0
 346 130 373 0 373 0 c 1
 323 0 l 2
 307 0 302 9 300 19 c 1
 300 19 277 117 258 179 c 0
 236 250 211 289 169 265 c 0
 129 243 118 150 142 100 c 1
 151 107 167 118 189 118 c 0
 225 118 242 91 233 56 c 0
 224 23 190 -4 155 -4 c 0
 127 -4 103 8 88 37 c 0
 44 115 62 247 148 298 c 0
 169 310 234 332 279 282 c 1
 289 300 314 314 335 314 c 0
 384 315 373 274 402 274 c 0
 432 274 458 335 473 461 c 1
 529 443 l 2
 536 441 538 437 535 427 c 0
163 26 m 0
 203 26 219 86 179 86 c 0
 139 86 123 26 163 26 c 0
EndSplineSet
EndChar
StartChar: uni0E5A
Encoding: 250 3674 216
Width: 476
Flags: HW
HStem: -12 20 353 36<155 190.5>
Fore
282 -12 m 1
 215 -12 l 1
 293 281 l 1
 221 240 135 254 114 272 c 0
 69 311 117 389 180 389 c 0
 232 389 249 345 218 303 c 1
 292 304 327 368 332 387 c 1
 389 387 l 1
 282 -12 l 1
407 -12 m 1
 340 -12 l 1
 447 387 l 1
 514 387 l 1
 407 -12 l 1
158 299 m 0
 193 299 208 353 173 353 c 0
 137 353 122 299 158 299 c 0
EndSplineSet
EndChar
StartChar: uni0E5B
Encoding: 251 3675 217
Width: 842
Flags: HW
HStem: 24 42 129 42 249 30 368 42
Fore
893 161 m 1
 893 161 l 1
 893 161 871 183 847 160 c 0
 816 131 782 118 768 158 c 0
 767 161 753 214 749 228 c 1
 671 73 l 1
 668 239 l 1
 566 41 l 1
 573 242 l 1
 485 45 l 1
 464 45 l 1
 476 284 l 1
 462 259 435 201 425 184 c 0
 352 56 269 24 195 24 c 0
 97 24 32 104 63 220 c 0
 96 343 187 410 277 410 c 0
 484 410 380 129 231 129 c 0
 176 129 146 165 161 220 c 0
 170 252 201 279 236 279 c 0
 270 279 286 254 277 220 c 0
 267 184 240 168 236 169 c 1
 236 167 l 1
 329 165 415 366 264 366 c 0
 202 366 133 311 109 219 c 0
 85 130 134 70 208 68 c 0
 257 68 328 97 385 197 c 0
 408 237 424 263 498 398 c 1
 519 398 l 1
 506 176 l 1
 590 361 l 1
 611 361 l 1
 604 178 l 1
 699 357 l 1
 700 192 l 1
 768 320 l 1
 787 226 796 192 796 192 c 1
 801 172 811 162 836 188 c 0
 868 221 903 199 903 199 c 1
 893 161 l 1
248 219 m 0
 252 235 246 253 229 253 c 0
 210 253 196 235 192 219 c 0
 186 199 194 184 210 184 c 0
 227 184 242 199 248 219 c 0
EndSplineSet
EndChar
StartChar: uni0E38.low
Encoding: 252 63256 218
Width: 0
Flags: HW
HStem: -259 30 -182 30
Fore
-129 -298 m 1
 -186 -298 l 1
 -174 -255 l 1
 -178 -255 -183 -255 -189 -255 c 0
 -257 -255 -231 -158 -163 -152 c 1
 -120 -150 -98 -170 -105 -209 c 1
 -129 -298 l 1
-151 -204 m 0
 -147 -191 -157 -179 -168 -179 c 0
 -184 -179 -197 -189 -201 -204 c 0
 -205 -219 -196 -229 -181 -229 c 0
 -166 -229 -155 -219 -151 -204 c 0
EndSplineSet
EndChar
StartChar: uni0E39.low
Encoding: 253 63257 219
Width: 0
Flags: HW
HStem: -310 30 -252 20 -176 20<-263.5 -210 -148 -90 -90 -90>
Fore
-114 -247 m 1
 -114 -247 l 0
 -123 -281 -152 -310 -193 -310 c 0
 -234 -310 -253 -288 -244 -254 c 2
 -243 -250 l 1
 -246 -251 -251 -252 -256 -252 c 0
 -322 -251 -297 -156 -230 -156 c 0
 -190 -156 -180 -180 -191 -215 c 1
 -203 -262 l 2
 -205 -270 -201 -275 -193 -275 c 0
 -186 -275 -179 -271 -176 -262 c 1
 -148 -156 l 1
 -90 -156 l 1
 -114 -247 l 1
-219 -204 m 0
 -215 -191 -224 -179 -237 -179 c 0
 -254 -179 -265 -189 -269 -204 c 0
 -273 -219 -266 -229 -250 -229 c 0
 -234 -229 -223 -219 -219 -204 c 0
EndSplineSet
EndChar
StartChar: uni0E3A.low
Encoding: 254 63258 220
Width: 0
Flags: HW
HStem: -218 82
Fore
-138 -218 m 0
 -192 -218 -172 -141 -118 -141 c 0
 -68 -141 -89 -218 -138 -218 c 0
EndSplineSet
EndChar
StartChar: multiply
Encoding: 256 215 222
Width: 403
Flags: HW
Fore
374 76 m 1
 322 32 l 1
 239 143 l 1
 99 33 l 1
 68 77 l 1
 208 186 l 1
 129 298 l 1
 181 339 l 1
 262 229 l 1
 402 339 l 1
 433 298 l 1
 294 186 l 1
 374 76 l 1
EndSplineSet
EndChar
StartChar: divide
Encoding: 257 247 223
Width: 356
Flags: HW
HStem: 1 82 138 52 239 90
Fore
297 286 m 0
 297 286 l 0
 290 261 266 244 243 244 c 0
 220 244 207 265 213 286 c 0
 219 309 241 329 266 329 c 0
 289 329 304 312 297 286 c 0
380 138 m 1
 50 138 l 1
 64 191 l 1
 394 191 l 1
 380 138 l 1
232 43 m 0
 225 17 201 1 178 1 c 0
 155 1 141 20 148 43 c 0
 153 64 176 85 201 85 c 0
 224 85 238 66 232 43 c 0
EndSplineSet
EndChar
StartChar: registered
Encoding: 258 174 224
Width: 504
Flags: HW
HStem: 96 30 198 30 311 30
Fore
396 96 m 1
 348 96 l 0
 328 96 322 124 317 151 c 0
 308 193 316 201 282 201 c 1
 264 133 l 1
 261 125 264 123 270 122 c 2
 286 120 l 1
 280 96 l 1
 172 96 l 1
 178 121 l 1
 193 122 l 2
 202 123 207 126 209 133 c 2
 255 305 l 1
 257 315 257 316 246 316 c 2
 232 316 l 1
 238 341 l 1
 349 341 l 2
 406 341 429 322 418 279 c 0
 409 246 379 215 350 212 c 1
 369 207 370 184 374 165 c 0
 380 144 376 122 402 121 c 1
 396 96 l 1
361 274 m 0
 361 274 l 0
 369 303 357 318 330 316 c 2
 317 315 l 2
 312 315 309 304 308 298 c 1
 289 229 l 1
 295 228 l 2
 325 228 352 237 361 274 c 0
125 214 m 0
 98 112 159 29 261 29 c 0
 363 29 468 112 495 214 c 0
 523 316 462 399 360 399 c 0
 258 399 153 316 125 214 c 0
 125 214 l 0
79 214 m 0
 113 341 244 444 371 444 c 0
 498 444 573 341 539 214 c 0
 505 87 375 -16 248 -16 c 0
 121 -16 45 87 79 214 c 0
EndSplineSet
LCarets: 0 65535 '    ' 1 0 
Ligature: 0 2 'liga' f f
EndChar
